<svg xmlns="http://www.w3.org/2000/svg" version="1.1" xmlns:xlink="http://www.w3.org/1999/xlink" xmlns:svgjs="http://svgjs.dev/svgjs" width="1440" height="560" preserveAspectRatio="none" viewBox="0 0 1440 560"><g mask="url(&quot;#SvgjsMask1012&quot;)" fill="none"><rect width="1440" height="560" x="0" y="0" fill="url(&quot;#SvgjsLinearGradient1013&quot;)"></rect><path d="M-111.29 525.67L-111.29 525.67" stroke="rgba(34, 40, 49, 1)" stroke-width="1.5"></path><path d="M-111.29 525.67L46.44 504.48" stroke="rgba(34, 40, 49, 1)" stroke-width="1.5"></path><path d="M-111.29 525.67L-92.61 701.81" stroke="rgba(34, 40, 49, 1)" stroke-width="1.5"></path><path d="M-92.61 701.81L-92.61 701.81" stroke="rgba(34, 40, 49, 1)" stroke-width="1.5"></path><path d="M-92.61 701.81L78.22 712.48" stroke="rgba(34, 40, 49, 1)" stroke-width="1.5"></path><path d="M64.16 368.07L64.16 368.07" stroke="rgba(34, 40, 49, 1)" stroke-width="1.5"></path><path d="M64.16 368.07L190.7 350.01" stroke="rgba(34, 40, 49, 1)" stroke-width="1.5"></path><path d="M64.16 368.07L46.44 504.48" stroke="rgba(34, 40, 49, 1)" stroke-width="1.5"></path><path d="M64.16 368.07L-111.29 525.67" stroke="rgba(34, 40, 49, 1)" stroke-width="1.5"></path><path d="M64.16 368.07L234.18 555.94" stroke="rgba(34, 40, 49, 1)" stroke-width="1.5"></path><path d="M64.16 368.07L228.07 657.98" stroke="rgba(34, 40, 49, 1)" stroke-width="1.5"></path><path d="M46.44 504.48L46.44 504.48" stroke="rgba(34, 40, 49, 1)" stroke-width="1.5"></path><path d="M46.44 504.48L234.18 555.94" stroke="rgba(34, 40, 49, 1)" stroke-width="1.5"></path><path d="M46.44 504.48L78.22 712.48" stroke="rgba(34, 40, 49, 1)" stroke-width="1.5"></path><path d="M46.44 504.48L190.7 350.01" stroke="rgba(34, 40, 49, 1)" stroke-width="1.5"></path><path d="M46.44 504.48L228.07 657.98" stroke="rgba(34, 40, 49, 1)" stroke-width="1.5"></path><path d="M78.22 712.48L78.22 712.48" stroke="rgba(34, 40, 49, 1)" stroke-width="1.5"></path><path d="M78.22 712.48L228.07 657.98" stroke="rgba(34, 40, 49, 1)" stroke-width="1.5"></path><path d="M78.22 712.48L234.18 555.94" stroke="rgba(34, 40, 49, 1)" stroke-width="1.5"></path><path d="M78.22 712.48L-111.29 525.67" stroke="rgba(34, 40, 49, 1)" stroke-width="1.5"></path><path d="M78.22 712.48L379.93 689.93" stroke="rgba(34, 40, 49, 1)" stroke-width="1.5"></path><path d="M190.7 350.01L190.7 350.01" stroke="rgba(34, 40, 49, 1)" stroke-width="1.5"></path><path d="M190.7 350.01L234.18 555.94" stroke="rgba(34, 40, 49, 1)" stroke-width="1.5"></path><path d="M190.7 350.01L406.64 405.38" stroke="rgba(34, 40, 49, 1)" stroke-width="1.5"></path><path d="M234.18 555.94L234.18 555.94" stroke="rgba(34, 40, 49, 1)" stroke-width="1.5"></path><path d="M234.18 555.94L228.07 657.98" stroke="rgba(34, 40, 49, 1)" stroke-width="1.5"></path><path d="M234.18 555.94L391.33 490.4" stroke="rgba(34, 40, 49, 1)" stroke-width="1.5"></path><path d="M228.07 657.98L228.07 657.98" stroke="rgba(34, 40, 49, 1)" stroke-width="1.5"></path><path d="M228.07 657.98L379.93 689.93" stroke="rgba(34, 40, 49, 1)" stroke-width="1.5"></path><path d="M228.07 657.98L391.33 490.4" stroke="rgba(34, 40, 49, 1)" stroke-width="1.5"></path><path d="M228.07 657.98L492.71 708.21" stroke="rgba(34, 40, 49, 1)" stroke-width="1.5"></path><path d="M406.64 405.38L406.64 405.38" stroke="rgba(34, 40, 49, 1)" stroke-width="1.5"></path><path d="M406.64 405.38L391.33 490.4" stroke="rgba(34, 40, 49, 1)" stroke-width="1.5"></path><path d="M406.64 405.38L513.29 361.52" stroke="rgba(34, 40, 49, 1)" stroke-width="1.5"></path><path d="M406.64 405.38L528 538.5" stroke="rgba(34, 40, 49, 1)" stroke-width="1.5"></path><path d="M406.64 405.38L234.18 555.94" stroke="rgba(34, 40, 49, 1)" stroke-width="1.5"></path><path d="M406.64 405.38L657.88 387.34" stroke="rgba(34, 40, 49, 1)" stroke-width="1.5"></path><path d="M391.33 490.4L391.33 490.4" stroke="rgba(34, 40, 49, 1)" stroke-width="1.5"></path><path d="M391.33 490.4L528 538.5" stroke="rgba(34, 40, 49, 1)" stroke-width="1.5"></path><path d="M379.93 689.93L379.93 689.93" stroke="rgba(34, 40, 49, 1)" stroke-width="1.5"></path><path d="M379.93 689.93L492.71 708.21" stroke="rgba(34, 40, 49, 1)" stroke-width="1.5"></path><path d="M379.93 689.93L234.18 555.94" stroke="rgba(34, 40, 49, 1)" stroke-width="1.5"></path><path d="M513.29 361.52L513.29 361.52" stroke="rgba(34, 40, 49, 1)" stroke-width="1.5"></path><path d="M513.29 361.52L657.88 387.34" stroke="rgba(34, 40, 49, 1)" stroke-width="1.5"></path><path d="M513.29 361.52L391.33 490.4" stroke="rgba(34, 40, 49, 1)" stroke-width="1.5"></path><path d="M513.29 361.52L528 538.5" stroke="rgba(34, 40, 49, 1)" stroke-width="1.5"></path><path d="M528 538.5L528 538.5" stroke="rgba(34, 40, 49, 1)" stroke-width="1.5"></path><path d="M528 538.5L670.21 550.26" stroke="rgba(34, 40, 49, 1)" stroke-width="1.5"></path><path d="M528 538.5L492.71 708.21" stroke="rgba(34, 40, 49, 1)" stroke-width="1.5"></path><path d="M492.71 708.21L492.71 708.21" stroke="rgba(34, 40, 49, 1)" stroke-width="1.5"></path><path d="M492.71 708.21L687.11 663.76" stroke="rgba(34, 40, 49, 1)" stroke-width="1.5"></path><path d="M492.71 708.21L670.21 550.26" stroke="rgba(34, 40, 49, 1)" stroke-width="1.5"></path><path d="M492.71 708.21L391.33 490.4" stroke="rgba(34, 40, 49, 1)" stroke-width="1.5"></path><path d="M657.88 387.34L657.88 387.34" stroke="rgba(34, 40, 49, 1)" stroke-width="1.5"></path><path d="M657.88 387.34L670.21 550.26" stroke="rgba(34, 40, 49, 1)" stroke-width="1.5"></path><path d="M657.88 387.34L789.19 258.93" stroke="rgba(34, 40, 49, 1)" stroke-width="1.5"></path><path d="M670.21 550.26L670.21 550.26" stroke="rgba(34, 40, 49, 1)" stroke-width="1.5"></path><path d="M670.21 550.26L687.11 663.76" stroke="rgba(34, 40, 49, 1)" stroke-width="1.5"></path><path d="M687.11 663.76L687.11 663.76" stroke="rgba(34, 40, 49, 1)" stroke-width="1.5"></path><path d="M687.11 663.76L808.85 701.43" stroke="rgba(34, 40, 49, 1)" stroke-width="1.5"></path><path d="M687.11 663.76L528 538.5" stroke="rgba(34, 40, 49, 1)" stroke-width="1.5"></path><path d="M844.03 86.07L844.03 86.07" stroke="rgba(34, 40, 49, 1)" stroke-width="1.5"></path><path d="M844.03 86.07L979.07 97.38" stroke="rgba(34, 40, 49, 1)" stroke-width="1.5"></path><path d="M844.03 86.07L789.19 258.93" stroke="rgba(34, 40, 49, 1)" stroke-width="1.5"></path><path d="M844.03 86.07L990.42 -43.97" stroke="rgba(34, 40, 49, 1)" stroke-width="1.5"></path><path d="M844.03 86.07L1004.45 210.12" stroke="rgba(34, 40, 49, 1)" stroke-width="1.5"></path><path d="M789.19 258.93L789.19 258.93" stroke="rgba(34, 40, 49, 1)" stroke-width="1.5"></path><path d="M789.19 258.93L848.08 383.96" stroke="rgba(34, 40, 49, 1)" stroke-width="1.5"></path><path d="M848.08 383.96L848.08 383.96" stroke="rgba(34, 40, 49, 1)" stroke-width="1.5"></path><path d="M848.08 383.96L839.63 490.32" stroke="rgba(34, 40, 49, 1)" stroke-width="1.5"></path><path d="M848.08 383.96L969.96 342.27" stroke="rgba(34, 40, 49, 1)" stroke-width="1.5"></path><path d="M848.08 383.96L952.29 499.83" stroke="rgba(34, 40, 49, 1)" stroke-width="1.5"></path><path d="M839.63 490.32L839.63 490.32" stroke="rgba(34, 40, 49, 1)" stroke-width="1.5"></path><path d="M839.63 490.32L952.29 499.83" stroke="rgba(34, 40, 49, 1)" stroke-width="1.5"></path><path d="M839.63 490.32L670.21 550.26" stroke="rgba(34, 40, 49, 1)" stroke-width="1.5"></path><path d="M839.63 490.32L956.34 638.69" stroke="rgba(34, 40, 49, 1)" stroke-width="1.5"></path><path d="M839.63 490.32L969.96 342.27" stroke="rgba(34, 40, 49, 1)" stroke-width="1.5"></path><path d="M839.63 490.32L657.88 387.34" stroke="rgba(34, 40, 49, 1)" stroke-width="1.5"></path><path d="M808.85 701.43L808.85 701.43" stroke="rgba(34, 40, 49, 1)" stroke-width="1.5"></path><path d="M808.85 701.43L956.34 638.69" stroke="rgba(34, 40, 49, 1)" stroke-width="1.5"></path><path d="M808.85 701.43L670.21 550.26" stroke="rgba(34, 40, 49, 1)" stroke-width="1.5"></path><path d="M990.42 -43.97L990.42 -43.97" stroke="rgba(34, 40, 49, 1)" stroke-width="1.5"></path><path d="M990.42 -43.97L1124.84 -75.1" stroke="rgba(34, 40, 49, 1)" stroke-width="1.5"></path><path d="M990.42 -43.97L979.07 97.38" stroke="rgba(34, 40, 49, 1)" stroke-width="1.5"></path><path d="M990.42 -43.97L1103.41 99.21" stroke="rgba(34, 40, 49, 1)" stroke-width="1.5"></path><path d="M990.42 -43.97L1004.45 210.12" stroke="rgba(34, 40, 49, 1)" stroke-width="1.5"></path><path d="M979.07 97.38L979.07 97.38" stroke="rgba(34, 40, 49, 1)" stroke-width="1.5"></path><path d="M979.07 97.38L1004.45 210.12" stroke="rgba(34, 40, 49, 1)" stroke-width="1.5"></path><path d="M979.07 97.38L1103.41 99.21" stroke="rgba(34, 40, 49, 1)" stroke-width="1.5"></path><path d="M979.07 97.38L1124.84 -75.1" stroke="rgba(34, 40, 49, 1)" stroke-width="1.5"></path><path d="M979.07 97.38L969.96 342.27" stroke="rgba(34, 40, 49, 1)" stroke-width="1.5"></path><path d="M1004.45 210.12L1004.45 210.12" stroke="rgba(34, 40, 49, 1)" stroke-width="1.5"></path><path d="M1004.45 210.12L969.96 342.27" stroke="rgba(34, 40, 49, 1)" stroke-width="1.5"></path><path d="M1004.45 210.12L1103.41 99.21" stroke="rgba(34, 40, 49, 1)" stroke-width="1.5"></path><path d="M969.96 342.27L969.96 342.27" stroke="rgba(34, 40, 49, 1)" stroke-width="1.5"></path><path d="M969.96 342.27L952.29 499.83" stroke="rgba(34, 40, 49, 1)" stroke-width="1.5"></path><path d="M952.29 499.83L952.29 499.83" stroke="rgba(34, 40, 49, 1)" stroke-width="1.5"></path><path d="M952.29 499.83L956.34 638.69" stroke="rgba(34, 40, 49, 1)" stroke-width="1.5"></path><path d="M952.29 499.83L1092.55 531.03" stroke="rgba(34, 40, 49, 1)" stroke-width="1.5"></path><path d="M956.34 638.69L956.34 638.69" stroke="rgba(34, 40, 49, 1)" stroke-width="1.5"></path><path d="M1124.84 -75.1L1124.84 -75.1" stroke="rgba(34, 40, 49, 1)" stroke-width="1.5"></path><path d="M1103.41 99.21L1103.41 99.21" stroke="rgba(34, 40, 49, 1)" stroke-width="1.5"></path><path d="M1092.55 531.03L1092.55 531.03" stroke="rgba(34, 40, 49, 1)" stroke-width="1.5"></path><path d="M1092.55 531.03L1262.22 511.83" stroke="rgba(34, 40, 49, 1)" stroke-width="1.5"></path><path d="M1092.55 531.03L956.34 638.69" stroke="rgba(34, 40, 49, 1)" stroke-width="1.5"></path><path d="M1138.38 708.57L1138.38 708.57" stroke="rgba(34, 40, 49, 1)" stroke-width="1.5"></path><path d="M1138.38 708.57L1257.56 707.32" stroke="rgba(34, 40, 49, 1)" stroke-width="1.5"></path><path d="M1138.38 708.57L1092.55 531.03" stroke="rgba(34, 40, 49, 1)" stroke-width="1.5"></path><path d="M1138.38 708.57L956.34 638.69" stroke="rgba(34, 40, 49, 1)" stroke-width="1.5"></path><path d="M1138.38 708.57L1262.22 511.83" stroke="rgba(34, 40, 49, 1)" stroke-width="1.5"></path><path d="M1310.73 -48.23L1310.73 -48.23" stroke="rgba(34, 40, 49, 1)" stroke-width="1.5"></path><path d="M1310.73 -48.23L1393.83 -90.52" stroke="rgba(34, 40, 49, 1)" stroke-width="1.5"></path><path d="M1310.73 -48.23L1301.78 92.34" stroke="rgba(34, 40, 49, 1)" stroke-width="1.5"></path><path d="M1310.73 -48.23L1398.23 68.1" stroke="rgba(34, 40, 49, 1)" stroke-width="1.5"></path><path d="M1301.78 92.34L1301.78 92.34" stroke="rgba(34, 40, 49, 1)" stroke-width="1.5"></path><path d="M1301.78 92.34L1398.23 68.1" stroke="rgba(34, 40, 49, 1)" stroke-width="1.5"></path><path d="M1301.78 92.34L1310.6 208.07" stroke="rgba(34, 40, 49, 1)" stroke-width="1.5"></path><path d="M1310.6 208.07L1310.6 208.07" stroke="rgba(34, 40, 49, 1)" stroke-width="1.5"></path><path d="M1310.6 208.07L1403.28 250.82" stroke="rgba(34, 40, 49, 1)" stroke-width="1.5"></path><path d="M1262.22 511.83L1262.22 511.83" stroke="rgba(34, 40, 49, 1)" stroke-width="1.5"></path><path d="M1262.22 511.83L1416.49 524.31" stroke="rgba(34, 40, 49, 1)" stroke-width="1.5"></path><path d="M1262.22 511.83L1257.56 707.32" stroke="rgba(34, 40, 49, 1)" stroke-width="1.5"></path><path d="M1262.22 511.83L1391.82 364.9" stroke="rgba(34, 40, 49, 1)" stroke-width="1.5"></path><path d="M1257.56 707.32L1257.56 707.32" stroke="rgba(34, 40, 49, 1)" stroke-width="1.5"></path><path d="M1257.56 707.32L1425.51 656.92" stroke="rgba(34, 40, 49, 1)" stroke-width="1.5"></path><path d="M1257.56 707.32L1092.55 531.03" stroke="rgba(34, 40, 49, 1)" stroke-width="1.5"></path><path d="M1257.56 707.32L1416.49 524.31" stroke="rgba(34, 40, 49, 1)" stroke-width="1.5"></path><path d="M1257.56 707.32L956.34 638.69" stroke="rgba(34, 40, 49, 1)" stroke-width="1.5"></path><path d="M1393.83 -90.52L1393.83 -90.52" stroke="rgba(34, 40, 49, 1)" stroke-width="1.5"></path><path d="M1393.83 -90.52L1398.23 68.1" stroke="rgba(34, 40, 49, 1)" stroke-width="1.5"></path><path d="M1398.23 68.1L1398.23 68.1" stroke="rgba(34, 40, 49, 1)" stroke-width="1.5"></path><path d="M1398.23 68.1L1547.1 47.15" stroke="rgba(34, 40, 49, 1)" stroke-width="1.5"></path><path d="M1403.28 250.82L1403.28 250.82" stroke="rgba(34, 40, 49, 1)" stroke-width="1.5"></path><path d="M1403.28 250.82L1391.82 364.9" stroke="rgba(34, 40, 49, 1)" stroke-width="1.5"></path><path d="M1403.28 250.82L1398.23 68.1" stroke="rgba(34, 40, 49, 1)" stroke-width="1.5"></path><path d="M1403.28 250.82L1301.78 92.34" stroke="rgba(34, 40, 49, 1)" stroke-width="1.5"></path><path d="M1403.28 250.82L1608.83 200.98" stroke="rgba(34, 40, 49, 1)" stroke-width="1.5"></path><path d="M1391.82 364.9L1391.82 364.9" stroke="rgba(34, 40, 49, 1)" stroke-width="1.5"></path><path d="M1391.82 364.9L1416.49 524.31" stroke="rgba(34, 40, 49, 1)" stroke-width="1.5"></path><path d="M1391.82 364.9L1310.6 208.07" stroke="rgba(34, 40, 49, 1)" stroke-width="1.5"></path><path d="M1391.82 364.9L1549.08 502.3" stroke="rgba(34, 40, 49, 1)" stroke-width="1.5"></path><path d="M1391.82 364.9L1608.83 200.98" stroke="rgba(34, 40, 49, 1)" stroke-width="1.5"></path><path d="M1416.49 524.31L1416.49 524.31" stroke="rgba(34, 40, 49, 1)" stroke-width="1.5"></path><path d="M1416.49 524.31L1425.51 656.92" stroke="rgba(34, 40, 49, 1)" stroke-width="1.5"></path><path d="M1416.49 524.31L1549.08 502.3" stroke="rgba(34, 40, 49, 1)" stroke-width="1.5"></path><path d="M1416.49 524.31L1579.48 698.11" stroke="rgba(34, 40, 49, 1)" stroke-width="1.5"></path><path d="M1425.51 656.92L1425.51 656.92" stroke="rgba(34, 40, 49, 1)" stroke-width="1.5"></path><path d="M1425.51 656.92L1579.48 698.11" stroke="rgba(34, 40, 49, 1)" stroke-width="1.5"></path><path d="M1425.51 656.92L1549.08 502.3" stroke="rgba(34, 40, 49, 1)" stroke-width="1.5"></path><path d="M1425.51 656.92L1262.22 511.83" stroke="rgba(34, 40, 49, 1)" stroke-width="1.5"></path><path d="M1425.51 656.92L1138.38 708.57" stroke="rgba(34, 40, 49, 1)" stroke-width="1.5"></path><path d="M1575.73 -109.44L1575.73 -109.44" stroke="rgba(34, 40, 49, 1)" stroke-width="1.5"></path><path d="M1575.73 -109.44L1547.1 47.15" stroke="rgba(34, 40, 49, 1)" stroke-width="1.5"></path><path d="M1575.73 -109.44L1393.83 -90.52" stroke="rgba(34, 40, 49, 1)" stroke-width="1.5"></path><path d="M1575.73 -109.44L1398.23 68.1" stroke="rgba(34, 40, 49, 1)" stroke-width="1.5"></path><path d="M1547.1 47.15L1547.1 47.15" stroke="rgba(34, 40, 49, 1)" stroke-width="1.5"></path><path d="M1547.1 47.15L1608.83 200.98" stroke="rgba(34, 40, 49, 1)" stroke-width="1.5"></path><path d="M1547.1 47.15L1393.83 -90.52" stroke="rgba(34, 40, 49, 1)" stroke-width="1.5"></path><path d="M1547.1 47.15L1403.28 250.82" stroke="rgba(34, 40, 49, 1)" stroke-width="1.5"></path><path d="M1547.1 47.15L1301.78 92.34" stroke="rgba(34, 40, 49, 1)" stroke-width="1.5"></path><path d="M1608.83 200.98L1608.83 200.98" stroke="rgba(34, 40, 49, 1)" stroke-width="1.5"></path><path d="M1608.83 200.98L1398.23 68.1" stroke="rgba(34, 40, 49, 1)" stroke-width="1.5"></path><path d="M1608.83 200.98L1310.6 208.07" stroke="rgba(34, 40, 49, 1)" stroke-width="1.5"></path><path d="M1608.83 200.98L1549.08 502.3" stroke="rgba(34, 40, 49, 1)" stroke-width="1.5"></path><path d="M1549.08 502.3L1549.08 502.3" stroke="rgba(34, 40, 49, 1)" stroke-width="1.5"></path><path d="M1549.08 502.3L1579.48 698.11" stroke="rgba(34, 40, 49, 1)" stroke-width="1.5"></path><path d="M1579.48 698.11L1579.48 698.11" stroke="rgba(34, 40, 49, 1)" stroke-width="1.5"></path><circle r="5" cx="-111.29" cy="525.67" fill="rgba(34, 40, 49, 1)"></circle><circle r="5" cx="-92.61" cy="701.81" fill="rgba(34, 40, 49, 1)"></circle><circle r="5" cx="64.16" cy="368.07" fill="rgba(34, 40, 49, 1)"></circle><circle r="5" cx="46.44" cy="504.48" fill="rgba(34, 40, 49, 1)"></circle><circle r="5" cx="78.22" cy="712.48" fill="rgba(34, 40, 49, 1)"></circle><circle r="5" cx="190.7" cy="350.01" fill="rgba(34, 40, 49, 1)"></circle><circle r="5" cx="234.18" cy="555.94" fill="rgba(34, 40, 49, 1)"></circle><circle r="5" cx="228.07" cy="657.98" fill="rgba(34, 40, 49, 1)"></circle><circle r="5" cx="406.64" cy="405.38" fill="rgba(34, 40, 49, 1)"></circle><circle r="5" cx="391.33" cy="490.4" fill="rgba(34, 40, 49, 1)"></circle><circle r="5" cx="379.93" cy="689.93" fill="rgba(34, 40, 49, 1)"></circle><circle r="5" cx="513.29" cy="361.52" fill="rgba(34, 40, 49, 1)"></circle><circle r="5" cx="528" cy="538.5" fill="rgba(34, 40, 49, 1)"></circle><circle r="5" cx="492.71" cy="708.21" fill="rgba(34, 40, 49, 1)"></circle><circle r="5" cx="657.88" cy="387.34" fill="rgba(34, 40, 49, 1)"></circle><circle r="5" cx="670.21" cy="550.26" fill="rgba(34, 40, 49, 1)"></circle><circle r="5" cx="687.11" cy="663.76" fill="rgba(34, 40, 49, 1)"></circle><circle r="5" cx="844.03" cy="86.07" fill="rgba(34, 40, 49, 1)"></circle><circle r="5" cx="789.19" cy="258.93" fill="rgba(34, 40, 49, 1)"></circle><circle r="5" cx="848.08" cy="383.96" fill="rgba(34, 40, 49, 1)"></circle><circle r="5" cx="839.63" cy="490.32" fill="rgba(34, 40, 49, 1)"></circle><circle r="5" cx="808.85" cy="701.43" fill="rgba(34, 40, 49, 1)"></circle><circle r="5" cx="990.42" cy="-43.97" fill="rgba(34, 40, 49, 1)"></circle><circle r="5" cx="979.07" cy="97.38" fill="rgba(34, 40, 49, 1)"></circle><circle r="5" cx="1004.45" cy="210.12" fill="rgba(34, 40, 49, 1)"></circle><circle r="5" cx="969.96" cy="342.27" fill="rgba(34, 40, 49, 1)"></circle><circle r="5" cx="952.29" cy="499.83" fill="rgba(34, 40, 49, 1)"></circle><circle r="5" cx="956.34" cy="638.69" fill="rgba(34, 40, 49, 1)"></circle><circle r="5" cx="1124.84" cy="-75.1" fill="rgba(34, 40, 49, 1)"></circle><circle r="5" cx="1103.41" cy="99.21" fill="rgba(34, 40, 49, 1)"></circle><circle r="5" cx="1092.55" cy="531.03" fill="rgba(34, 40, 49, 1)"></circle><circle r="5" cx="1138.38" cy="708.57" fill="rgba(34, 40, 49, 1)"></circle><circle r="5" cx="1310.73" cy="-48.23" fill="rgba(34, 40, 49, 1)"></circle><circle r="5" cx="1301.78" cy="92.34" fill="rgba(34, 40, 49, 1)"></circle><circle r="5" cx="1310.6" cy="208.07" fill="rgba(34, 40, 49, 1)"></circle><circle r="5" cx="1262.22" cy="511.83" fill="rgba(34, 40, 49, 1)"></circle><circle r="5" cx="1257.56" cy="707.32" fill="rgba(34, 40, 49, 1)"></circle><circle r="5" cx="1393.83" cy="-90.52" fill="rgba(34, 40, 49, 1)"></circle><circle r="5" cx="1398.23" cy="68.1" fill="rgba(34, 40, 49, 1)"></circle><circle r="5" cx="1403.28" cy="250.82" fill="rgba(34, 40, 49, 1)"></circle><circle r="5" cx="1391.82" cy="364.9" fill="rgba(34, 40, 49, 1)"></circle><circle r="5" cx="1416.49" cy="524.31" fill="rgba(34, 40, 49, 1)"></circle><circle r="5" cx="1425.51" cy="656.92" fill="rgba(34, 40, 49, 1)"></circle><circle r="5" cx="1575.73" cy="-109.44" fill="rgba(34, 40, 49, 1)"></circle><circle r="5" cx="1547.1" cy="47.15" fill="rgba(34, 40, 49, 1)"></circle><circle r="5" cx="1608.83" cy="200.98" fill="rgba(34, 40, 49, 1)"></circle><circle r="5" cx="1549.08" cy="502.3" fill="rgba(34, 40, 49, 1)"></circle><circle r="5" cx="1579.48" cy="698.11" fill="rgba(34, 40, 49, 1)"></circle><path d="M-106.36 531.13L-106.36 531.13" stroke="hsla(163.10000000000002, 100%, 65%, 0.7)" stroke-width="1.5"></path><path d="M-106.36 531.13L-92.49 662.42" stroke="hsla(163.10000000000002, 100%, 65%, 0.7)" stroke-width="1.5"></path><path d="M-106.36 531.13L99.42 535.7" stroke="hsla(163.10000000000002, 100%, 65%, 0.7)" stroke-width="1.5"></path><path d="M-106.36 531.13L94.21 705.42" stroke="hsla(163.10000000000002, 100%, 65%, 0.7)" stroke-width="1.5"></path><path d="M-106.36 531.13L203.09 538.71" stroke="hsla(163.10000000000002, 100%, 65%, 0.7)" stroke-width="1.5"></path><path d="M-106.36 531.13L216.37 659.63" stroke="hsla(163.10000000000002, 100%, 65%, 0.7)" stroke-width="1.5"></path><path d="M-106.36 531.13L364.95 538.59" stroke="hsla(163.10000000000002, 100%, 65%, 0.7)" stroke-width="1.5"></path><path d="M203.09 538.71L203.09 538.71" stroke="hsla(163.10000000000002, 100%, 65%, 0.7)" stroke-width="1.5"></path><path d="M203.09 538.71L99.42 535.7" stroke="hsla(163.10000000000002, 100%, 65%, 0.7)" stroke-width="1.5"></path><path d="M203.09 538.71L216.37 659.63" stroke="hsla(163.10000000000002, 100%, 65%, 0.7)" stroke-width="1.5"></path><path d="M203.09 538.71L364.95 538.59" stroke="hsla(163.10000000000002, 100%, 65%, 0.7)" stroke-width="1.5"></path><path d="M203.09 538.71L94.21 705.42" stroke="hsla(163.10000000000002, 100%, 65%, 0.7)" stroke-width="1.5"></path><path d="M203.09 538.71L396.5 677.72" stroke="hsla(163.10000000000002, 100%, 65%, 0.7)" stroke-width="1.5"></path><path d="M216.37 659.63L216.37 659.63" stroke="hsla(163.10000000000002, 100%, 65%, 0.7)" stroke-width="1.5"></path><path d="M216.37 659.63L94.21 705.42" stroke="hsla(163.10000000000002, 100%, 65%, 0.7)" stroke-width="1.5"></path><path d="M815.8 536.44L815.8 536.44" stroke="hsla(163.10000000000002, 100%, 65%, 0.7)" stroke-width="1.5"></path><path d="M815.8 536.44L696.46 490.79" stroke="hsla(163.10000000000002, 100%, 65%, 0.7)" stroke-width="1.5"></path><path d="M815.8 536.44L815.3 695.74" stroke="hsla(163.10000000000002, 100%, 65%, 0.7)" stroke-width="1.5"></path><path d="M815.8 536.44L975.73 552.24" stroke="hsla(163.10000000000002, 100%, 65%, 0.7)" stroke-width="1.5"></path><path d="M815.8 536.44L803.16 370.3" stroke="hsla(163.10000000000002, 100%, 65%, 0.7)" stroke-width="1.5"></path><path d="M815.8 536.44L711.34 687.96" stroke="hsla(163.10000000000002, 100%, 65%, 0.7)" stroke-width="1.5"></path><path d="M975.73 552.24L975.73 552.24" stroke="hsla(163.10000000000002, 100%, 65%, 0.7)" stroke-width="1.5"></path><path d="M975.73 552.24L1112.52 500.8" stroke="hsla(163.10000000000002, 100%, 65%, 0.7)" stroke-width="1.5"></path><path d="M975.73 552.24L1011.16 402.61" stroke="hsla(163.10000000000002, 100%, 65%, 0.7)" stroke-width="1.5"></path><path d="M975.73 552.24L992.13 706.6" stroke="hsla(163.10000000000002, 100%, 65%, 0.7)" stroke-width="1.5"></path><path d="M975.73 552.24L1134.63 680.76" stroke="hsla(163.10000000000002, 100%, 65%, 0.7)" stroke-width="1.5"></path><path d="M975.73 552.24L1128 406.85" stroke="hsla(163.10000000000002, 100%, 65%, 0.7)" stroke-width="1.5"></path><path d="M1099.23 240.58L1099.23 240.58" stroke="hsla(163.10000000000002, 100%, 65%, 0.7)" stroke-width="1.5"></path><path d="M1099.23 240.58L973.63 253.84" stroke="hsla(163.10000000000002, 100%, 65%, 0.7)" stroke-width="1.5"></path><path d="M1099.23 240.58L1261.52 240.59" stroke="hsla(163.10000000000002, 100%, 65%, 0.7)" stroke-width="1.5"></path><path d="M1099.23 240.58L1128 406.85" stroke="hsla(163.10000000000002, 100%, 65%, 0.7)" stroke-width="1.5"></path><path d="M1099.23 240.58L1011.16 402.61" stroke="hsla(163.10000000000002, 100%, 65%, 0.7)" stroke-width="1.5"></path><path d="M1294.02 72.2L1294.02 72.2" stroke="hsla(163.10000000000002, 100%, 65%, 0.7)" stroke-width="1.5"></path><path d="M1294.02 72.2L1442.56 38.75" stroke="hsla(163.10000000000002, 100%, 65%, 0.7)" stroke-width="1.5"></path><path d="M1294.02 72.2L1261.52 240.59" stroke="hsla(163.10000000000002, 100%, 65%, 0.7)" stroke-width="1.5"></path><path d="M1294.02 72.2L1424.25 231.29" stroke="hsla(163.10000000000002, 100%, 65%, 0.7)" stroke-width="1.5"></path><path d="M1294.02 72.2L1447.52 -64.79" stroke="hsla(163.10000000000002, 100%, 65%, 0.7)" stroke-width="1.5"></path><path d="M1276.75 526.36L1276.75 526.36" stroke="hsla(163.10000000000002, 100%, 65%, 0.7)" stroke-width="1.5"></path><path d="M1276.75 526.36L1284.51 642.7" stroke="hsla(163.10000000000002, 100%, 65%, 0.7)" stroke-width="1.5"></path><path d="M1276.75 526.36L1239.37 396.04" stroke="hsla(163.10000000000002, 100%, 65%, 0.7)" stroke-width="1.5"></path><path d="M1557.95 71.42L1557.95 71.42" stroke="hsla(163.10000000000002, 100%, 65%, 0.7)" stroke-width="1.5"></path><path d="M1557.95 71.42L1442.56 38.75" stroke="hsla(163.10000000000002, 100%, 65%, 0.7)" stroke-width="1.5"></path><path d="M1557.95 71.42L1597.8 -73.42" stroke="hsla(163.10000000000002, 100%, 65%, 0.7)" stroke-width="1.5"></path><path d="M1557.95 71.42L1447.52 -64.79" stroke="hsla(163.10000000000002, 100%, 65%, 0.7)" stroke-width="1.5"></path><path d="M1557.95 71.42L1571.96 249.22" stroke="hsla(163.10000000000002, 100%, 65%, 0.7)" stroke-width="1.5"></path><path d="M1594.23 397.01L1594.23 397.01" stroke="hsla(163.10000000000002, 100%, 65%, 0.7)" stroke-width="1.5"></path><path d="M1594.23 397.01L1588.63 502.3" stroke="hsla(163.10000000000002, 100%, 65%, 0.7)" stroke-width="1.5"></path><path d="M1594.23 397.01L1571.96 249.22" stroke="hsla(163.10000000000002, 100%, 65%, 0.7)" stroke-width="1.5"></path><path d="M1594.23 397.01L1427.47 353.94" stroke="hsla(163.10000000000002, 100%, 65%, 0.7)" stroke-width="1.5"></path><path d="M1594.23 397.01L1450.91 518.49" stroke="hsla(163.10000000000002, 100%, 65%, 0.7)" stroke-width="1.5"></path><path d="M-92.49 662.42L-92.49 662.42" stroke="hsla(163.10000000000002, 100%, 65%, 0.7)" stroke-width="1.5"></path><path d="M-92.49 662.42L94.21 705.42" stroke="hsla(163.10000000000002, 100%, 65%, 0.7)" stroke-width="1.5"></path><path d="M-92.49 662.42L99.42 535.7" stroke="hsla(163.10000000000002, 100%, 65%, 0.7)" stroke-width="1.5"></path><path d="M-92.49 662.42L216.37 659.63" stroke="hsla(163.10000000000002, 100%, 65%, 0.7)" stroke-width="1.5"></path><path d="M-92.49 662.42L203.09 538.71" stroke="hsla(163.10000000000002, 100%, 65%, 0.7)" stroke-width="1.5"></path><path d="M-92.49 662.42L364.95 538.59" stroke="hsla(163.10000000000002, 100%, 65%, 0.7)" stroke-width="1.5"></path><path d="M99.42 535.7L99.42 535.7" stroke="hsla(163.10000000000002, 100%, 65%, 0.7)" stroke-width="1.5"></path><path d="M99.42 535.7L94.21 705.42" stroke="hsla(163.10000000000002, 100%, 65%, 0.7)" stroke-width="1.5"></path><path d="M99.42 535.7L216.37 659.63" stroke="hsla(163.10000000000002, 100%, 65%, 0.7)" stroke-width="1.5"></path><path d="M99.42 535.7L364.95 538.59" stroke="hsla(163.10000000000002, 100%, 65%, 0.7)" stroke-width="1.5"></path><path d="M94.21 705.42L94.21 705.42" stroke="hsla(163.10000000000002, 100%, 65%, 0.7)" stroke-width="1.5"></path><path d="M364.95 538.59L364.95 538.59" stroke="hsla(163.10000000000002, 100%, 65%, 0.7)" stroke-width="1.5"></path><path d="M364.95 538.59L396.5 677.72" stroke="hsla(163.10000000000002, 100%, 65%, 0.7)" stroke-width="1.5"></path><path d="M396.5 677.72L396.5 677.72" stroke="hsla(163.10000000000002, 100%, 65%, 0.7)" stroke-width="1.5"></path><path d="M396.5 677.72L522.28 682.86" stroke="hsla(163.10000000000002, 100%, 65%, 0.7)" stroke-width="1.5"></path><path d="M562.25 492.63L562.25 492.63" stroke="hsla(163.10000000000002, 100%, 65%, 0.7)" stroke-width="1.5"></path><path d="M562.25 492.63L696.46 490.79" stroke="hsla(163.10000000000002, 100%, 65%, 0.7)" stroke-width="1.5"></path><path d="M562.25 492.63L522.28 682.86" stroke="hsla(163.10000000000002, 100%, 65%, 0.7)" stroke-width="1.5"></path><path d="M562.25 492.63L364.95 538.59" stroke="hsla(163.10000000000002, 100%, 65%, 0.7)" stroke-width="1.5"></path><path d="M522.28 682.86L522.28 682.86" stroke="hsla(163.10000000000002, 100%, 65%, 0.7)" stroke-width="1.5"></path><path d="M522.28 682.86L711.34 687.96" stroke="hsla(163.10000000000002, 100%, 65%, 0.7)" stroke-width="1.5"></path><path d="M696.46 490.79L696.46 490.79" stroke="hsla(163.10000000000002, 100%, 65%, 0.7)" stroke-width="1.5"></path><path d="M711.34 687.96L711.34 687.96" stroke="hsla(163.10000000000002, 100%, 65%, 0.7)" stroke-width="1.5"></path><path d="M711.34 687.96L815.3 695.74" stroke="hsla(163.10000000000002, 100%, 65%, 0.7)" stroke-width="1.5"></path><path d="M711.34 687.96L696.46 490.79" stroke="hsla(163.10000000000002, 100%, 65%, 0.7)" stroke-width="1.5"></path><path d="M803.16 370.3L803.16 370.3" stroke="hsla(163.10000000000002, 100%, 65%, 0.7)" stroke-width="1.5"></path><path d="M803.16 370.3L696.46 490.79" stroke="hsla(163.10000000000002, 100%, 65%, 0.7)" stroke-width="1.5"></path><path d="M815.3 695.74L815.3 695.74" stroke="hsla(163.10000000000002, 100%, 65%, 0.7)" stroke-width="1.5"></path><path d="M973.63 253.84L973.63 253.84" stroke="hsla(163.10000000000002, 100%, 65%, 0.7)" stroke-width="1.5"></path><path d="M1011.16 402.61L1011.16 402.61" stroke="hsla(163.10000000000002, 100%, 65%, 0.7)" stroke-width="1.5"></path><path d="M1011.16 402.61L1128 406.85" stroke="hsla(163.10000000000002, 100%, 65%, 0.7)" stroke-width="1.5"></path><path d="M1011.16 402.61L1112.52 500.8" stroke="hsla(163.10000000000002, 100%, 65%, 0.7)" stroke-width="1.5"></path><path d="M1011.16 402.61L973.63 253.84" stroke="hsla(163.10000000000002, 100%, 65%, 0.7)" stroke-width="1.5"></path><path d="M992.13 706.6L992.13 706.6" stroke="hsla(163.10000000000002, 100%, 65%, 0.7)" stroke-width="1.5"></path><path d="M992.13 706.6L1134.63 680.76" stroke="hsla(163.10000000000002, 100%, 65%, 0.7)" stroke-width="1.5"></path><path d="M992.13 706.6L815.3 695.74" stroke="hsla(163.10000000000002, 100%, 65%, 0.7)" stroke-width="1.5"></path><path d="M1128 406.85L1128 406.85" stroke="hsla(163.10000000000002, 100%, 65%, 0.7)" stroke-width="1.5"></path><path d="M1128 406.85L1112.52 500.8" stroke="hsla(163.10000000000002, 100%, 65%, 0.7)" stroke-width="1.5"></path><path d="M1128 406.85L1239.37 396.04" stroke="hsla(163.10000000000002, 100%, 65%, 0.7)" stroke-width="1.5"></path><path d="M1112.52 500.8L1112.52 500.8" stroke="hsla(163.10000000000002, 100%, 65%, 0.7)" stroke-width="1.5"></path><path d="M1134.63 680.76L1134.63 680.76" stroke="hsla(163.10000000000002, 100%, 65%, 0.7)" stroke-width="1.5"></path><path d="M1134.63 680.76L1284.51 642.7" stroke="hsla(163.10000000000002, 100%, 65%, 0.7)" stroke-width="1.5"></path><path d="M1134.63 680.76L1112.52 500.8" stroke="hsla(163.10000000000002, 100%, 65%, 0.7)" stroke-width="1.5"></path><path d="M1261.52 240.59L1261.52 240.59" stroke="hsla(163.10000000000002, 100%, 65%, 0.7)" stroke-width="1.5"></path><path d="M1261.52 240.59L1239.37 396.04" stroke="hsla(163.10000000000002, 100%, 65%, 0.7)" stroke-width="1.5"></path><path d="M1261.52 240.59L1424.25 231.29" stroke="hsla(163.10000000000002, 100%, 65%, 0.7)" stroke-width="1.5"></path><path d="M1239.37 396.04L1239.37 396.04" stroke="hsla(163.10000000000002, 100%, 65%, 0.7)" stroke-width="1.5"></path><path d="M1239.37 396.04L1112.52 500.8" stroke="hsla(163.10000000000002, 100%, 65%, 0.7)" stroke-width="1.5"></path><path d="M1284.51 642.7L1284.51 642.7" stroke="hsla(163.10000000000002, 100%, 65%, 0.7)" stroke-width="1.5"></path><path d="M1284.51 642.7L1421.08 675.28" stroke="hsla(163.10000000000002, 100%, 65%, 0.7)" stroke-width="1.5"></path><path d="M1284.51 642.7L1450.91 518.49" stroke="hsla(163.10000000000002, 100%, 65%, 0.7)" stroke-width="1.5"></path><path d="M1447.52 -64.79L1447.52 -64.79" stroke="hsla(163.10000000000002, 100%, 65%, 0.7)" stroke-width="1.5"></path><path d="M1447.52 -64.79L1442.56 38.75" stroke="hsla(163.10000000000002, 100%, 65%, 0.7)" stroke-width="1.5"></path><path d="M1447.52 -64.79L1597.8 -73.42" stroke="hsla(163.10000000000002, 100%, 65%, 0.7)" stroke-width="1.5"></path><path d="M1442.56 38.75L1442.56 38.75" stroke="hsla(163.10000000000002, 100%, 65%, 0.7)" stroke-width="1.5"></path><path d="M1424.25 231.29L1424.25 231.29" stroke="hsla(163.10000000000002, 100%, 65%, 0.7)" stroke-width="1.5"></path><path d="M1424.25 231.29L1427.47 353.94" stroke="hsla(163.10000000000002, 100%, 65%, 0.7)" stroke-width="1.5"></path><path d="M1424.25 231.29L1571.96 249.22" stroke="hsla(163.10000000000002, 100%, 65%, 0.7)" stroke-width="1.5"></path><path d="M1427.47 353.94L1427.47 353.94" stroke="hsla(163.10000000000002, 100%, 65%, 0.7)" stroke-width="1.5"></path><path d="M1427.47 353.94L1450.91 518.49" stroke="hsla(163.10000000000002, 100%, 65%, 0.7)" stroke-width="1.5"></path><path d="M1450.91 518.49L1450.91 518.49" stroke="hsla(163.10000000000002, 100%, 65%, 0.7)" stroke-width="1.5"></path><path d="M1450.91 518.49L1588.63 502.3" stroke="hsla(163.10000000000002, 100%, 65%, 0.7)" stroke-width="1.5"></path><path d="M1450.91 518.49L1421.08 675.28" stroke="hsla(163.10000000000002, 100%, 65%, 0.7)" stroke-width="1.5"></path><path d="M1421.08 675.28L1421.08 675.28" stroke="hsla(163.10000000000002, 100%, 65%, 0.7)" stroke-width="1.5"></path><path d="M1421.08 675.28L1607.34 651.68" stroke="hsla(163.10000000000002, 100%, 65%, 0.7)" stroke-width="1.5"></path><path d="M1597.8 -73.42L1597.8 -73.42" stroke="hsla(163.10000000000002, 100%, 65%, 0.7)" stroke-width="1.5"></path><path d="M1571.96 249.22L1571.96 249.22" stroke="hsla(163.10000000000002, 100%, 65%, 0.7)" stroke-width="1.5"></path><path d="M1571.96 249.22L1427.47 353.94" stroke="hsla(163.10000000000002, 100%, 65%, 0.7)" stroke-width="1.5"></path><path d="M1571.96 249.22L1442.56 38.75" stroke="hsla(163.10000000000002, 100%, 65%, 0.7)" stroke-width="1.5"></path><path d="M1588.63 502.3L1588.63 502.3" stroke="hsla(163.10000000000002, 100%, 65%, 0.7)" stroke-width="1.5"></path><path d="M1607.34 651.68L1607.34 651.68" stroke="hsla(163.10000000000002, 100%, 65%, 0.7)" stroke-width="1.5"></path><path d="M1607.34 651.68L1588.63 502.3" stroke="hsla(163.10000000000002, 100%, 65%, 0.7)" stroke-width="1.5"></path><circle r="25" cx="-106.36" cy="531.13" fill="url(&quot;#SvgjsRadialGradient1014&quot;)"></circle><circle r="25" cx="203.09" cy="538.71" fill="url(&quot;#SvgjsRadialGradient1014&quot;)"></circle><circle r="25" cx="216.37" cy="659.63" fill="url(&quot;#SvgjsRadialGradient1014&quot;)"></circle><circle r="25" cx="815.8" cy="536.44" fill="url(&quot;#SvgjsRadialGradient1014&quot;)"></circle><circle r="25" cx="975.73" cy="552.24" fill="url(&quot;#SvgjsRadialGradient1014&quot;)"></circle><circle r="25" cx="1099.23" cy="240.58" fill="url(&quot;#SvgjsRadialGradient1014&quot;)"></circle><circle r="25" cx="1294.02" cy="72.2" fill="url(&quot;#SvgjsRadialGradient1014&quot;)"></circle><circle r="25" cx="1276.75" cy="526.36" fill="url(&quot;#SvgjsRadialGradient1014&quot;)"></circle><circle r="25" cx="1557.95" cy="71.42" fill="url(&quot;#SvgjsRadialGradient1014&quot;)"></circle><circle r="25" cx="1594.23" cy="397.01" fill="url(&quot;#SvgjsRadialGradient1014&quot;)"></circle><circle r="5" cx="-92.49" cy="662.42" fill="rgba(166, 255, 230, 0.85)"></circle><circle r="5" cx="99.42" cy="535.7" fill="rgba(166, 255, 230, 0.85)"></circle><circle r="5" cx="94.21" cy="705.42" fill="rgba(166, 255, 230, 0.85)"></circle><circle r="5" cx="364.95" cy="538.59" fill="rgba(166, 255, 230, 0.85)"></circle><circle r="5" cx="396.5" cy="677.72" fill="rgba(166, 255, 230, 0.85)"></circle><circle r="5" cx="562.25" cy="492.63" fill="rgba(166, 255, 230, 0.85)"></circle><circle r="5" cx="522.28" cy="682.86" fill="rgba(166, 255, 230, 0.85)"></circle><circle r="5" cx="696.46" cy="490.79" fill="rgba(166, 255, 230, 0.85)"></circle><circle r="5" cx="711.34" cy="687.96" fill="rgba(166, 255, 230, 0.85)"></circle><circle r="5" cx="803.16" cy="370.3" fill="rgba(166, 255, 230, 0.85)"></circle><circle r="5" cx="815.3" cy="695.74" fill="rgba(166, 255, 230, 0.85)"></circle><circle r="5" cx="973.63" cy="253.84" fill="rgba(166, 255, 230, 0.85)"></circle><circle r="5" cx="1011.16" cy="402.61" fill="rgba(166, 255, 230, 0.85)"></circle><circle r="5" cx="992.13" cy="706.6" fill="rgba(166, 255, 230, 0.85)"></circle><circle r="5" cx="1128" cy="406.85" fill="rgba(166, 255, 230, 0.85)"></circle><circle r="5" cx="1112.52" cy="500.8" fill="rgba(166, 255, 230, 0.85)"></circle><circle r="5" cx="1134.63" cy="680.76" fill="rgba(166, 255, 230, 0.85)"></circle><circle r="5" cx="1261.52" cy="240.59" fill="rgba(166, 255, 230, 0.85)"></circle><circle r="5" cx="1239.37" cy="396.04" fill="rgba(166, 255, 230, 0.85)"></circle><circle r="5" cx="1284.51" cy="642.7" fill="rgba(166, 255, 230, 0.85)"></circle><circle r="5" cx="1447.52" cy="-64.79" fill="rgba(166, 255, 230, 0.85)"></circle><circle r="5" cx="1442.56" cy="38.75" fill="rgba(166, 255, 230, 0.85)"></circle><circle r="5" cx="1424.25" cy="231.29" fill="rgba(166, 255, 230, 0.85)"></circle><circle r="5" cx="1427.47" cy="353.94" fill="rgba(166, 255, 230, 0.85)"></circle><circle r="5" cx="1450.91" cy="518.49" fill="rgba(166, 255, 230, 0.85)"></circle><circle r="5" cx="1421.08" cy="675.28" fill="rgba(166, 255, 230, 0.85)"></circle><circle r="5" cx="1597.8" cy="-73.42" fill="rgba(166, 255, 230, 0.85)"></circle><circle r="5" cx="1571.96" cy="249.22" fill="rgba(166, 255, 230, 0.85)"></circle><circle r="5" cx="1588.63" cy="502.3" fill="rgba(166, 255, 230, 0.85)"></circle><circle r="5" cx="1607.34" cy="651.68" fill="rgba(166, 255, 230, 0.85)"></circle></g><defs><mask id="SvgjsMask1012"><rect width="1440" height="560" fill="#ffffff"></rect></mask><linearGradient x1="0%" y1="50%" x2="100%" y2="50%" gradientUnits="userSpaceOnUse" id="SvgjsLinearGradient1013"><stop stop-color="rgba(14, 42, 71, 1)" offset="0.51"></stop><stop stop-color="rgba(34, 40, 49, 1)" offset="1"></stop></linearGradient><radialGradient id="SvgjsRadialGradient1014"><stop stop-color="#ffffff" offset="0.1"></stop><stop stop-color="rgba(0, 255, 183, 0.7)" offset="0.2"></stop><stop stop-color="rgba(0, 255, 183, 0)" offset="1"></stop></radialGradient></defs></svg>