<svg xmlns="http://www.w3.org/2000/svg" version="1.1" xmlns:xlink="http://www.w3.org/1999/xlink" xmlns:svgjs="http://svgjs.dev/svgjs" width="1440" height="560" preserveAspectRatio="none" viewBox="0 0 1440 560"><g mask="url(&quot;#SvgjsMask1063&quot;)" fill="none"><path d="M-88.36 372.38L-88.36 372.38" stroke="rgba(34, 40, 49, 1)" stroke-width="1.5"></path><path d="M-88.36 372.38L-49.03 525.81" stroke="rgba(34, 40, 49, 1)" stroke-width="1.5"></path><path d="M-88.36 372.38L83.21 381.95" stroke="rgba(34, 40, 49, 1)" stroke-width="1.5"></path><path d="M-88.36 372.38L85.43 536.77" stroke="rgba(34, 40, 49, 1)" stroke-width="1.5"></path><path d="M-49.03 525.81L-49.03 525.81" stroke="rgba(34, 40, 49, 1)" stroke-width="1.5"></path><path d="M-49.03 525.81L85.43 536.77" stroke="rgba(34, 40, 49, 1)" stroke-width="1.5"></path><path d="M-49.03 525.81L-79.11 674.8" stroke="rgba(34, 40, 49, 1)" stroke-width="1.5"></path><path d="M-49.03 525.81L83.21 381.95" stroke="rgba(34, 40, 49, 1)" stroke-width="1.5"></path><path d="M-49.03 525.81L109.55 659.17" stroke="rgba(34, 40, 49, 1)" stroke-width="1.5"></path><path d="M-79.11 674.8L-79.11 674.8" stroke="rgba(34, 40, 49, 1)" stroke-width="1.5"></path><path d="M-79.11 674.8L109.55 659.17" stroke="rgba(34, 40, 49, 1)" stroke-width="1.5"></path><path d="M-79.11 674.8L85.43 536.77" stroke="rgba(34, 40, 49, 1)" stroke-width="1.5"></path><path d="M-79.11 674.8L202.82 676.14" stroke="rgba(34, 40, 49, 1)" stroke-width="1.5"></path><path d="M83.21 381.95L83.21 381.95" stroke="rgba(34, 40, 49, 1)" stroke-width="1.5"></path><path d="M83.21 381.95L200.05 398.02" stroke="rgba(34, 40, 49, 1)" stroke-width="1.5"></path><path d="M83.21 381.95L85.43 536.77" stroke="rgba(34, 40, 49, 1)" stroke-width="1.5"></path><path d="M83.21 381.95L200.28 524.07" stroke="rgba(34, 40, 49, 1)" stroke-width="1.5"></path><path d="M85.43 536.77L85.43 536.77" stroke="rgba(34, 40, 49, 1)" stroke-width="1.5"></path><path d="M85.43 536.77L200.28 524.07" stroke="rgba(34, 40, 49, 1)" stroke-width="1.5"></path><path d="M85.43 536.77L109.55 659.17" stroke="rgba(34, 40, 49, 1)" stroke-width="1.5"></path><path d="M109.55 659.17L109.55 659.17" stroke="rgba(34, 40, 49, 1)" stroke-width="1.5"></path><path d="M109.55 659.17L202.82 676.14" stroke="rgba(34, 40, 49, 1)" stroke-width="1.5"></path><path d="M109.55 659.17L200.28 524.07" stroke="rgba(34, 40, 49, 1)" stroke-width="1.5"></path><path d="M200.05 398.02L200.05 398.02" stroke="rgba(34, 40, 49, 1)" stroke-width="1.5"></path><path d="M200.05 398.02L200.28 524.07" stroke="rgba(34, 40, 49, 1)" stroke-width="1.5"></path><path d="M200.05 398.02L85.43 536.77" stroke="rgba(34, 40, 49, 1)" stroke-width="1.5"></path><path d="M200.05 398.02L344.42 555.11" stroke="rgba(34, 40, 49, 1)" stroke-width="1.5"></path><path d="M200.05 398.02L109.55 659.17" stroke="rgba(34, 40, 49, 1)" stroke-width="1.5"></path><path d="M200.28 524.07L200.28 524.07" stroke="rgba(34, 40, 49, 1)" stroke-width="1.5"></path><path d="M202.82 676.14L202.82 676.14" stroke="rgba(34, 40, 49, 1)" stroke-width="1.5"></path><path d="M202.82 676.14L200.28 524.07" stroke="rgba(34, 40, 49, 1)" stroke-width="1.5"></path><path d="M202.82 676.14L372.61 657.57" stroke="rgba(34, 40, 49, 1)" stroke-width="1.5"></path><path d="M202.82 676.14L85.43 536.77" stroke="rgba(34, 40, 49, 1)" stroke-width="1.5"></path><path d="M344.42 555.11L344.42 555.11" stroke="rgba(34, 40, 49, 1)" stroke-width="1.5"></path><path d="M344.42 555.11L372.61 657.57" stroke="rgba(34, 40, 49, 1)" stroke-width="1.5"></path><path d="M344.42 555.11L200.28 524.07" stroke="rgba(34, 40, 49, 1)" stroke-width="1.5"></path><path d="M372.61 657.57L372.61 657.57" stroke="rgba(34, 40, 49, 1)" stroke-width="1.5"></path><path d="M372.61 657.57L529.06 694.4" stroke="rgba(34, 40, 49, 1)" stroke-width="1.5"></path><path d="M372.61 657.57L499.7 491.27" stroke="rgba(34, 40, 49, 1)" stroke-width="1.5"></path><path d="M372.61 657.57L200.28 524.07" stroke="rgba(34, 40, 49, 1)" stroke-width="1.5"></path><path d="M499.7 491.27L499.7 491.27" stroke="rgba(34, 40, 49, 1)" stroke-width="1.5"></path><path d="M499.7 491.27L344.42 555.11" stroke="rgba(34, 40, 49, 1)" stroke-width="1.5"></path><path d="M499.7 491.27L679.27 514.08" stroke="rgba(34, 40, 49, 1)" stroke-width="1.5"></path><path d="M499.7 491.27L529.06 694.4" stroke="rgba(34, 40, 49, 1)" stroke-width="1.5"></path><path d="M499.7 491.27L698.97 638.63" stroke="rgba(34, 40, 49, 1)" stroke-width="1.5"></path><path d="M529.06 694.4L529.06 694.4" stroke="rgba(34, 40, 49, 1)" stroke-width="1.5"></path><path d="M529.06 694.4L698.97 638.63" stroke="rgba(34, 40, 49, 1)" stroke-width="1.5"></path><path d="M672.79 235.47L672.79 235.47" stroke="rgba(34, 40, 49, 1)" stroke-width="1.5"></path><path d="M672.79 235.47L815.32 250.09" stroke="rgba(34, 40, 49, 1)" stroke-width="1.5"></path><path d="M672.79 235.47L799.79 373.62" stroke="rgba(34, 40, 49, 1)" stroke-width="1.5"></path><path d="M672.79 235.47L679.27 514.08" stroke="rgba(34, 40, 49, 1)" stroke-width="1.5"></path><path d="M672.79 235.47L499.7 491.27" stroke="rgba(34, 40, 49, 1)" stroke-width="1.5"></path><path d="M679.27 514.08L679.27 514.08" stroke="rgba(34, 40, 49, 1)" stroke-width="1.5"></path><path d="M679.27 514.08L698.97 638.63" stroke="rgba(34, 40, 49, 1)" stroke-width="1.5"></path><path d="M679.27 514.08L821.48 545.78" stroke="rgba(34, 40, 49, 1)" stroke-width="1.5"></path><path d="M679.27 514.08L799.79 373.62" stroke="rgba(34, 40, 49, 1)" stroke-width="1.5"></path><path d="M679.27 514.08L529.06 694.4" stroke="rgba(34, 40, 49, 1)" stroke-width="1.5"></path><path d="M679.27 514.08L859.34 700.24" stroke="rgba(34, 40, 49, 1)" stroke-width="1.5"></path><path d="M698.97 638.63L698.97 638.63" stroke="rgba(34, 40, 49, 1)" stroke-width="1.5"></path><path d="M698.97 638.63L821.48 545.78" stroke="rgba(34, 40, 49, 1)" stroke-width="1.5"></path><path d="M698.97 638.63L859.34 700.24" stroke="rgba(34, 40, 49, 1)" stroke-width="1.5"></path><path d="M698.97 638.63L955.52 702.75" stroke="rgba(34, 40, 49, 1)" stroke-width="1.5"></path><path d="M815.32 250.09L815.32 250.09" stroke="rgba(34, 40, 49, 1)" stroke-width="1.5"></path><path d="M815.32 250.09L799.79 373.62" stroke="rgba(34, 40, 49, 1)" stroke-width="1.5"></path><path d="M815.32 250.09L995.24 250.61" stroke="rgba(34, 40, 49, 1)" stroke-width="1.5"></path><path d="M815.32 250.09L995.58 410.62" stroke="rgba(34, 40, 49, 1)" stroke-width="1.5"></path><path d="M815.32 250.09L998.92 55.5" stroke="rgba(34, 40, 49, 1)" stroke-width="1.5"></path><path d="M815.32 250.09L1106.01 227.04" stroke="rgba(34, 40, 49, 1)" stroke-width="1.5"></path><path d="M799.79 373.62L799.79 373.62" stroke="rgba(34, 40, 49, 1)" stroke-width="1.5"></path><path d="M799.79 373.62L821.48 545.78" stroke="rgba(34, 40, 49, 1)" stroke-width="1.5"></path><path d="M799.79 373.62L995.58 410.62" stroke="rgba(34, 40, 49, 1)" stroke-width="1.5"></path><path d="M821.48 545.78L821.48 545.78" stroke="rgba(34, 40, 49, 1)" stroke-width="1.5"></path><path d="M821.48 545.78L938.38 525.47" stroke="rgba(34, 40, 49, 1)" stroke-width="1.5"></path><path d="M859.34 700.24L859.34 700.24" stroke="rgba(34, 40, 49, 1)" stroke-width="1.5"></path><path d="M859.34 700.24L955.52 702.75" stroke="rgba(34, 40, 49, 1)" stroke-width="1.5"></path><path d="M972.85 -49.88L972.85 -49.88" stroke="rgba(34, 40, 49, 1)" stroke-width="1.5"></path><path d="M972.85 -49.88L998.92 55.5" stroke="rgba(34, 40, 49, 1)" stroke-width="1.5"></path><path d="M972.85 -49.88L1118.06 -53.98" stroke="rgba(34, 40, 49, 1)" stroke-width="1.5"></path><path d="M972.85 -49.88L1155.92 101.46" stroke="rgba(34, 40, 49, 1)" stroke-width="1.5"></path><path d="M972.85 -49.88L995.24 250.61" stroke="rgba(34, 40, 49, 1)" stroke-width="1.5"></path><path d="M972.85 -49.88L1260.71 56.43" stroke="rgba(34, 40, 49, 1)" stroke-width="1.5"></path><path d="M998.92 55.5L998.92 55.5" stroke="rgba(34, 40, 49, 1)" stroke-width="1.5"></path><path d="M998.92 55.5L1118.06 -53.98" stroke="rgba(34, 40, 49, 1)" stroke-width="1.5"></path><path d="M998.92 55.5L1155.92 101.46" stroke="rgba(34, 40, 49, 1)" stroke-width="1.5"></path><path d="M998.92 55.5L995.24 250.61" stroke="rgba(34, 40, 49, 1)" stroke-width="1.5"></path><path d="M998.92 55.5L1106.01 227.04" stroke="rgba(34, 40, 49, 1)" stroke-width="1.5"></path><path d="M998.92 55.5L1260.71 56.43" stroke="rgba(34, 40, 49, 1)" stroke-width="1.5"></path><path d="M995.24 250.61L995.24 250.61" stroke="rgba(34, 40, 49, 1)" stroke-width="1.5"></path><path d="M995.24 250.61L1106.01 227.04" stroke="rgba(34, 40, 49, 1)" stroke-width="1.5"></path><path d="M995.24 250.61L995.58 410.62" stroke="rgba(34, 40, 49, 1)" stroke-width="1.5"></path><path d="M995.58 410.62L995.58 410.62" stroke="rgba(34, 40, 49, 1)" stroke-width="1.5"></path><path d="M995.58 410.62L938.38 525.47" stroke="rgba(34, 40, 49, 1)" stroke-width="1.5"></path><path d="M995.58 410.62L1158.87 378.59" stroke="rgba(34, 40, 49, 1)" stroke-width="1.5"></path><path d="M995.58 410.62L1147.84 502.67" stroke="rgba(34, 40, 49, 1)" stroke-width="1.5"></path><path d="M995.58 410.62L1106.01 227.04" stroke="rgba(34, 40, 49, 1)" stroke-width="1.5"></path><path d="M938.38 525.47L938.38 525.47" stroke="rgba(34, 40, 49, 1)" stroke-width="1.5"></path><path d="M938.38 525.47L955.52 702.75" stroke="rgba(34, 40, 49, 1)" stroke-width="1.5"></path><path d="M955.52 702.75L955.52 702.75" stroke="rgba(34, 40, 49, 1)" stroke-width="1.5"></path><path d="M955.52 702.75L1151.92 650.67" stroke="rgba(34, 40, 49, 1)" stroke-width="1.5"></path><path d="M955.52 702.75L821.48 545.78" stroke="rgba(34, 40, 49, 1)" stroke-width="1.5"></path><path d="M955.52 702.75L1147.84 502.67" stroke="rgba(34, 40, 49, 1)" stroke-width="1.5"></path><path d="M1118.06 -53.98L1118.06 -53.98" stroke="rgba(34, 40, 49, 1)" stroke-width="1.5"></path><path d="M1118.06 -53.98L1155.92 101.46" stroke="rgba(34, 40, 49, 1)" stroke-width="1.5"></path><path d="M1155.92 101.46L1155.92 101.46" stroke="rgba(34, 40, 49, 1)" stroke-width="1.5"></path><path d="M1155.92 101.46L1260.71 56.43" stroke="rgba(34, 40, 49, 1)" stroke-width="1.5"></path><path d="M1155.92 101.46L1106.01 227.04" stroke="rgba(34, 40, 49, 1)" stroke-width="1.5"></path><path d="M1155.92 101.46L1255.22 201.52" stroke="rgba(34, 40, 49, 1)" stroke-width="1.5"></path><path d="M1106.01 227.04L1106.01 227.04" stroke="rgba(34, 40, 49, 1)" stroke-width="1.5"></path><path d="M1106.01 227.04L1255.22 201.52" stroke="rgba(34, 40, 49, 1)" stroke-width="1.5"></path><path d="M1106.01 227.04L1158.87 378.59" stroke="rgba(34, 40, 49, 1)" stroke-width="1.5"></path><path d="M1158.87 378.59L1158.87 378.59" stroke="rgba(34, 40, 49, 1)" stroke-width="1.5"></path><path d="M1158.87 378.59L1147.84 502.67" stroke="rgba(34, 40, 49, 1)" stroke-width="1.5"></path><path d="M1158.87 378.59L1305.4 344.18" stroke="rgba(34, 40, 49, 1)" stroke-width="1.5"></path><path d="M1147.84 502.67L1147.84 502.67" stroke="rgba(34, 40, 49, 1)" stroke-width="1.5"></path><path d="M1147.84 502.67L1151.92 650.67" stroke="rgba(34, 40, 49, 1)" stroke-width="1.5"></path><path d="M1151.92 650.67L1151.92 650.67" stroke="rgba(34, 40, 49, 1)" stroke-width="1.5"></path><path d="M1151.92 650.67L1287.13 685.33" stroke="rgba(34, 40, 49, 1)" stroke-width="1.5"></path><path d="M1298.3 -51.16L1298.3 -51.16" stroke="rgba(34, 40, 49, 1)" stroke-width="1.5"></path><path d="M1298.3 -51.16L1260.71 56.43" stroke="rgba(34, 40, 49, 1)" stroke-width="1.5"></path><path d="M1298.3 -51.16L1438.77 -103.31" stroke="rgba(34, 40, 49, 1)" stroke-width="1.5"></path><path d="M1298.3 -51.16L1440.34 37.85" stroke="rgba(34, 40, 49, 1)" stroke-width="1.5"></path><path d="M1298.3 -51.16L1118.06 -53.98" stroke="rgba(34, 40, 49, 1)" stroke-width="1.5"></path><path d="M1298.3 -51.16L1155.92 101.46" stroke="rgba(34, 40, 49, 1)" stroke-width="1.5"></path><path d="M1260.71 56.43L1260.71 56.43" stroke="rgba(34, 40, 49, 1)" stroke-width="1.5"></path><path d="M1255.22 201.52L1255.22 201.52" stroke="rgba(34, 40, 49, 1)" stroke-width="1.5"></path><path d="M1255.22 201.52L1260.71 56.43" stroke="rgba(34, 40, 49, 1)" stroke-width="1.5"></path><path d="M1305.4 344.18L1305.4 344.18" stroke="rgba(34, 40, 49, 1)" stroke-width="1.5"></path><path d="M1305.4 344.18L1391.15 374.38" stroke="rgba(34, 40, 49, 1)" stroke-width="1.5"></path><path d="M1287.13 685.33L1287.13 685.33" stroke="rgba(34, 40, 49, 1)" stroke-width="1.5"></path><path d="M1287.13 685.33L1416.78 711.69" stroke="rgba(34, 40, 49, 1)" stroke-width="1.5"></path><path d="M1287.13 685.33L1408.75 553.77" stroke="rgba(34, 40, 49, 1)" stroke-width="1.5"></path><path d="M1287.13 685.33L1147.84 502.67" stroke="rgba(34, 40, 49, 1)" stroke-width="1.5"></path><path d="M1438.77 -103.31L1438.77 -103.31" stroke="rgba(34, 40, 49, 1)" stroke-width="1.5"></path><path d="M1438.77 -103.31L1440.34 37.85" stroke="rgba(34, 40, 49, 1)" stroke-width="1.5"></path><path d="M1438.77 -103.31L1586.57 -90.36" stroke="rgba(34, 40, 49, 1)" stroke-width="1.5"></path><path d="M1438.77 -103.31L1566.99 70.43" stroke="rgba(34, 40, 49, 1)" stroke-width="1.5"></path><path d="M1440.34 37.85L1440.34 37.85" stroke="rgba(34, 40, 49, 1)" stroke-width="1.5"></path><path d="M1440.34 37.85L1566.99 70.43" stroke="rgba(34, 40, 49, 1)" stroke-width="1.5"></path><path d="M1460.06 200.75L1460.06 200.75" stroke="rgba(34, 40, 49, 1)" stroke-width="1.5"></path><path d="M1460.06 200.75L1539.78 199.78" stroke="rgba(34, 40, 49, 1)" stroke-width="1.5"></path><path d="M1460.06 200.75L1440.34 37.85" stroke="rgba(34, 40, 49, 1)" stroke-width="1.5"></path><path d="M1460.06 200.75L1566.99 70.43" stroke="rgba(34, 40, 49, 1)" stroke-width="1.5"></path><path d="M1460.06 200.75L1391.15 374.38" stroke="rgba(34, 40, 49, 1)" stroke-width="1.5"></path><path d="M1391.15 374.38L1391.15 374.38" stroke="rgba(34, 40, 49, 1)" stroke-width="1.5"></path><path d="M1391.15 374.38L1563.84 400.36" stroke="rgba(34, 40, 49, 1)" stroke-width="1.5"></path><path d="M1391.15 374.38L1408.75 553.77" stroke="rgba(34, 40, 49, 1)" stroke-width="1.5"></path><path d="M1408.75 553.77L1408.75 553.77" stroke="rgba(34, 40, 49, 1)" stroke-width="1.5"></path><path d="M1408.75 553.77L1416.78 711.69" stroke="rgba(34, 40, 49, 1)" stroke-width="1.5"></path><path d="M1408.75 553.77L1537.51 681.51" stroke="rgba(34, 40, 49, 1)" stroke-width="1.5"></path><path d="M1408.75 553.77L1609.39 499.83" stroke="rgba(34, 40, 49, 1)" stroke-width="1.5"></path><path d="M1416.78 711.69L1416.78 711.69" stroke="rgba(34, 40, 49, 1)" stroke-width="1.5"></path><path d="M1416.78 711.69L1537.51 681.51" stroke="rgba(34, 40, 49, 1)" stroke-width="1.5"></path><path d="M1416.78 711.69L1151.92 650.67" stroke="rgba(34, 40, 49, 1)" stroke-width="1.5"></path><path d="M1416.78 711.69L1609.39 499.83" stroke="rgba(34, 40, 49, 1)" stroke-width="1.5"></path><path d="M1586.57 -90.36L1586.57 -90.36" stroke="rgba(34, 40, 49, 1)" stroke-width="1.5"></path><path d="M1586.57 -90.36L1566.99 70.43" stroke="rgba(34, 40, 49, 1)" stroke-width="1.5"></path><path d="M1586.57 -90.36L1440.34 37.85" stroke="rgba(34, 40, 49, 1)" stroke-width="1.5"></path><path d="M1586.57 -90.36L1298.3 -51.16" stroke="rgba(34, 40, 49, 1)" stroke-width="1.5"></path><path d="M1586.57 -90.36L1539.78 199.78" stroke="rgba(34, 40, 49, 1)" stroke-width="1.5"></path><path d="M1586.57 -90.36L1460.06 200.75" stroke="rgba(34, 40, 49, 1)" stroke-width="1.5"></path><path d="M1566.99 70.43L1566.99 70.43" stroke="rgba(34, 40, 49, 1)" stroke-width="1.5"></path><path d="M1566.99 70.43L1539.78 199.78" stroke="rgba(34, 40, 49, 1)" stroke-width="1.5"></path><path d="M1539.78 199.78L1539.78 199.78" stroke="rgba(34, 40, 49, 1)" stroke-width="1.5"></path><path d="M1539.78 199.78L1440.34 37.85" stroke="rgba(34, 40, 49, 1)" stroke-width="1.5"></path><path d="M1539.78 199.78L1563.84 400.36" stroke="rgba(34, 40, 49, 1)" stroke-width="1.5"></path><path d="M1563.84 400.36L1563.84 400.36" stroke="rgba(34, 40, 49, 1)" stroke-width="1.5"></path><path d="M1563.84 400.36L1609.39 499.83" stroke="rgba(34, 40, 49, 1)" stroke-width="1.5"></path><path d="M1609.39 499.83L1609.39 499.83" stroke="rgba(34, 40, 49, 1)" stroke-width="1.5"></path><path d="M1609.39 499.83L1537.51 681.51" stroke="rgba(34, 40, 49, 1)" stroke-width="1.5"></path><path d="M1537.51 681.51L1537.51 681.51" stroke="rgba(34, 40, 49, 1)" stroke-width="1.5"></path><circle r="5" cx="-88.36" cy="372.38" fill="rgba(34, 40, 49, 1)"></circle><circle r="5" cx="-49.03" cy="525.81" fill="rgba(34, 40, 49, 1)"></circle><circle r="5" cx="-79.11" cy="674.8" fill="rgba(34, 40, 49, 1)"></circle><circle r="5" cx="83.21" cy="381.95" fill="rgba(34, 40, 49, 1)"></circle><circle r="5" cx="85.43" cy="536.77" fill="rgba(34, 40, 49, 1)"></circle><circle r="5" cx="109.55" cy="659.17" fill="rgba(34, 40, 49, 1)"></circle><circle r="5" cx="200.05" cy="398.02" fill="rgba(34, 40, 49, 1)"></circle><circle r="5" cx="200.28" cy="524.07" fill="rgba(34, 40, 49, 1)"></circle><circle r="5" cx="202.82" cy="676.14" fill="rgba(34, 40, 49, 1)"></circle><circle r="5" cx="344.42" cy="555.11" fill="rgba(34, 40, 49, 1)"></circle><circle r="5" cx="372.61" cy="657.57" fill="rgba(34, 40, 49, 1)"></circle><circle r="5" cx="499.7" cy="491.27" fill="rgba(34, 40, 49, 1)"></circle><circle r="5" cx="529.06" cy="694.4" fill="rgba(34, 40, 49, 1)"></circle><circle r="5" cx="672.79" cy="235.47" fill="rgba(34, 40, 49, 1)"></circle><circle r="5" cx="679.27" cy="514.08" fill="rgba(34, 40, 49, 1)"></circle><circle r="5" cx="698.97" cy="638.63" fill="rgba(34, 40, 49, 1)"></circle><circle r="5" cx="815.32" cy="250.09" fill="rgba(34, 40, 49, 1)"></circle><circle r="5" cx="799.79" cy="373.62" fill="rgba(34, 40, 49, 1)"></circle><circle r="5" cx="821.48" cy="545.78" fill="rgba(34, 40, 49, 1)"></circle><circle r="5" cx="859.34" cy="700.24" fill="rgba(34, 40, 49, 1)"></circle><circle r="5" cx="972.85" cy="-49.88" fill="rgba(34, 40, 49, 1)"></circle><circle r="5" cx="998.92" cy="55.5" fill="rgba(34, 40, 49, 1)"></circle><circle r="5" cx="995.24" cy="250.61" fill="rgba(34, 40, 49, 1)"></circle><circle r="5" cx="995.58" cy="410.62" fill="rgba(34, 40, 49, 1)"></circle><circle r="5" cx="938.38" cy="525.47" fill="rgba(34, 40, 49, 1)"></circle><circle r="5" cx="955.52" cy="702.75" fill="rgba(34, 40, 49, 1)"></circle><circle r="5" cx="1118.06" cy="-53.98" fill="rgba(34, 40, 49, 1)"></circle><circle r="5" cx="1155.92" cy="101.46" fill="rgba(34, 40, 49, 1)"></circle><circle r="5" cx="1106.01" cy="227.04" fill="rgba(34, 40, 49, 1)"></circle><circle r="5" cx="1158.87" cy="378.59" fill="rgba(34, 40, 49, 1)"></circle><circle r="5" cx="1147.84" cy="502.67" fill="rgba(34, 40, 49, 1)"></circle><circle r="5" cx="1151.92" cy="650.67" fill="rgba(34, 40, 49, 1)"></circle><circle r="5" cx="1298.3" cy="-51.16" fill="rgba(34, 40, 49, 1)"></circle><circle r="5" cx="1260.71" cy="56.43" fill="rgba(34, 40, 49, 1)"></circle><circle r="5" cx="1255.22" cy="201.52" fill="rgba(34, 40, 49, 1)"></circle><circle r="5" cx="1305.4" cy="344.18" fill="rgba(34, 40, 49, 1)"></circle><circle r="5" cx="1287.13" cy="685.33" fill="rgba(34, 40, 49, 1)"></circle><circle r="5" cx="1438.77" cy="-103.31" fill="rgba(34, 40, 49, 1)"></circle><circle r="5" cx="1440.34" cy="37.85" fill="rgba(34, 40, 49, 1)"></circle><circle r="5" cx="1460.06" cy="200.75" fill="rgba(34, 40, 49, 1)"></circle><circle r="5" cx="1391.15" cy="374.38" fill="rgba(34, 40, 49, 1)"></circle><circle r="5" cx="1408.75" cy="553.77" fill="rgba(34, 40, 49, 1)"></circle><circle r="5" cx="1416.78" cy="711.69" fill="rgba(34, 40, 49, 1)"></circle><circle r="5" cx="1586.57" cy="-90.36" fill="rgba(34, 40, 49, 1)"></circle><circle r="5" cx="1566.99" cy="70.43" fill="rgba(34, 40, 49, 1)"></circle><circle r="5" cx="1539.78" cy="199.78" fill="rgba(34, 40, 49, 1)"></circle><circle r="5" cx="1563.84" cy="400.36" fill="rgba(34, 40, 49, 1)"></circle><circle r="5" cx="1609.39" cy="499.83" fill="rgba(34, 40, 49, 1)"></circle><circle r="5" cx="1537.51" cy="681.51" fill="rgba(34, 40, 49, 1)"></circle><path d="M850.54 498.21L850.54 498.21" stroke="hsla(163.10000000000002, 100%, 65%, 0.7)" stroke-width="1.5"></path><path d="M850.54 498.21L824.49 382.76" stroke="hsla(163.10000000000002, 100%, 65%, 0.7)" stroke-width="1.5"></path><path d="M978.81 410.77L978.81 410.77" stroke="hsla(163.10000000000002, 100%, 65%, 0.7)" stroke-width="1.5"></path><path d="M978.81 410.77L977.9 539.33" stroke="hsla(163.10000000000002, 100%, 65%, 0.7)" stroke-width="1.5"></path><path d="M978.81 410.77L850.54 498.21" stroke="hsla(163.10000000000002, 100%, 65%, 0.7)" stroke-width="1.5"></path><path d="M978.81 410.77L824.49 382.76" stroke="hsla(163.10000000000002, 100%, 65%, 0.7)" stroke-width="1.5"></path><path d="M978.81 410.77L1152.58 363.09" stroke="hsla(163.10000000000002, 100%, 65%, 0.7)" stroke-width="1.5"></path><path d="M978.81 410.77L1114.61 244.15" stroke="hsla(163.10000000000002, 100%, 65%, 0.7)" stroke-width="1.5"></path><path d="M994.33 651.79L994.33 651.79" stroke="hsla(163.10000000000002, 100%, 65%, 0.7)" stroke-width="1.5"></path><path d="M994.33 651.79L1094.42 675.4" stroke="hsla(163.10000000000002, 100%, 65%, 0.7)" stroke-width="1.5"></path><path d="M994.33 651.79L977.9 539.33" stroke="hsla(163.10000000000002, 100%, 65%, 0.7)" stroke-width="1.5"></path><path d="M1156.75 -77.19L1156.75 -77.19" stroke="hsla(163.10000000000002, 100%, 65%, 0.7)" stroke-width="1.5"></path><path d="M1156.75 -77.19L1139.45 68.47" stroke="hsla(163.10000000000002, 100%, 65%, 0.7)" stroke-width="1.5"></path><path d="M1156.75 -77.19L1261.37 100.12" stroke="hsla(163.10000000000002, 100%, 65%, 0.7)" stroke-width="1.5"></path><path d="M1114.61 244.15L1114.61 244.15" stroke="hsla(163.10000000000002, 100%, 65%, 0.7)" stroke-width="1.5"></path><path d="M1114.61 244.15L1152.58 363.09" stroke="hsla(163.10000000000002, 100%, 65%, 0.7)" stroke-width="1.5"></path><path d="M1114.61 244.15L1276.6 261.13" stroke="hsla(163.10000000000002, 100%, 65%, 0.7)" stroke-width="1.5"></path><path d="M1114.61 244.15L1139.45 68.47" stroke="hsla(163.10000000000002, 100%, 65%, 0.7)" stroke-width="1.5"></path><path d="M1114.61 244.15L1261.37 100.12" stroke="hsla(163.10000000000002, 100%, 65%, 0.7)" stroke-width="1.5"></path><path d="M1114.61 244.15L1288.56 380.67" stroke="hsla(163.10000000000002, 100%, 65%, 0.7)" stroke-width="1.5"></path><path d="M1267.34 507.52L1267.34 507.52" stroke="hsla(163.10000000000002, 100%, 65%, 0.7)" stroke-width="1.5"></path><path d="M1267.34 507.52L1161.39 547.07" stroke="hsla(163.10000000000002, 100%, 65%, 0.7)" stroke-width="1.5"></path><path d="M1267.34 507.52L1288.56 380.67" stroke="hsla(163.10000000000002, 100%, 65%, 0.7)" stroke-width="1.5"></path><path d="M1406.61 654.57L1406.61 654.57" stroke="hsla(163.10000000000002, 100%, 65%, 0.7)" stroke-width="1.5"></path><path d="M1406.61 654.57L1311.89 651.47" stroke="hsla(163.10000000000002, 100%, 65%, 0.7)" stroke-width="1.5"></path><path d="M1406.61 654.57L1418.8 500.83" stroke="hsla(163.10000000000002, 100%, 65%, 0.7)" stroke-width="1.5"></path><path d="M1406.61 654.57L1579.26 641.15" stroke="hsla(163.10000000000002, 100%, 65%, 0.7)" stroke-width="1.5"></path><path d="M1406.61 654.57L1267.34 507.52" stroke="hsla(163.10000000000002, 100%, 65%, 0.7)" stroke-width="1.5"></path><path d="M1406.61 654.57L1603.71 551.78" stroke="hsla(163.10000000000002, 100%, 65%, 0.7)" stroke-width="1.5"></path><path d="M-58.71 554.12L-58.71 554.12" stroke="hsla(163.10000000000002, 100%, 65%, 0.7)" stroke-width="1.5"></path><path d="M-58.71 554.12L81.16 560.22" stroke="hsla(163.10000000000002, 100%, 65%, 0.7)" stroke-width="1.5"></path><path d="M-58.71 554.12L-57.09 711.99" stroke="hsla(163.10000000000002, 100%, 65%, 0.7)" stroke-width="1.5"></path><path d="M-57.09 711.99L-57.09 711.99" stroke="hsla(163.10000000000002, 100%, 65%, 0.7)" stroke-width="1.5"></path><path d="M-57.09 711.99L92.64 700.22" stroke="hsla(163.10000000000002, 100%, 65%, 0.7)" stroke-width="1.5"></path><path d="M-57.09 711.99L81.16 560.22" stroke="hsla(163.10000000000002, 100%, 65%, 0.7)" stroke-width="1.5"></path><path d="M81.16 560.22L81.16 560.22" stroke="hsla(163.10000000000002, 100%, 65%, 0.7)" stroke-width="1.5"></path><path d="M81.16 560.22L92.64 700.22" stroke="hsla(163.10000000000002, 100%, 65%, 0.7)" stroke-width="1.5"></path><path d="M92.64 700.22L92.64 700.22" stroke="hsla(163.10000000000002, 100%, 65%, 0.7)" stroke-width="1.5"></path><path d="M253.85 638.76L253.85 638.76" stroke="hsla(163.10000000000002, 100%, 65%, 0.7)" stroke-width="1.5"></path><path d="M253.85 638.76L342.3 688.25" stroke="hsla(163.10000000000002, 100%, 65%, 0.7)" stroke-width="1.5"></path><path d="M253.85 638.76L342.8 558.61" stroke="hsla(163.10000000000002, 100%, 65%, 0.7)" stroke-width="1.5"></path><path d="M253.85 638.76L92.64 700.22" stroke="hsla(163.10000000000002, 100%, 65%, 0.7)" stroke-width="1.5"></path><path d="M253.85 638.76L81.16 560.22" stroke="hsla(163.10000000000002, 100%, 65%, 0.7)" stroke-width="1.5"></path><path d="M253.85 638.76L496.98 640.69" stroke="hsla(163.10000000000002, 100%, 65%, 0.7)" stroke-width="1.5"></path><path d="M342.8 558.61L342.8 558.61" stroke="hsla(163.10000000000002, 100%, 65%, 0.7)" stroke-width="1.5"></path><path d="M342.8 558.61L342.3 688.25" stroke="hsla(163.10000000000002, 100%, 65%, 0.7)" stroke-width="1.5"></path><path d="M342.8 558.61L496.98 640.69" stroke="hsla(163.10000000000002, 100%, 65%, 0.7)" stroke-width="1.5"></path><path d="M342.8 558.61L525.72 562.21" stroke="hsla(163.10000000000002, 100%, 65%, 0.7)" stroke-width="1.5"></path><path d="M342.3 688.25L342.3 688.25" stroke="hsla(163.10000000000002, 100%, 65%, 0.7)" stroke-width="1.5"></path><path d="M342.3 688.25L496.98 640.69" stroke="hsla(163.10000000000002, 100%, 65%, 0.7)" stroke-width="1.5"></path><path d="M525.72 562.21L525.72 562.21" stroke="hsla(163.10000000000002, 100%, 65%, 0.7)" stroke-width="1.5"></path><path d="M525.72 562.21L496.98 640.69" stroke="hsla(163.10000000000002, 100%, 65%, 0.7)" stroke-width="1.5"></path><path d="M525.72 562.21L650.9 708.78" stroke="hsla(163.10000000000002, 100%, 65%, 0.7)" stroke-width="1.5"></path><path d="M525.72 562.21L705.16 488.94" stroke="hsla(163.10000000000002, 100%, 65%, 0.7)" stroke-width="1.5"></path><path d="M525.72 562.21L342.3 688.25" stroke="hsla(163.10000000000002, 100%, 65%, 0.7)" stroke-width="1.5"></path><path d="M525.72 562.21L253.85 638.76" stroke="hsla(163.10000000000002, 100%, 65%, 0.7)" stroke-width="1.5"></path><path d="M496.98 640.69L496.98 640.69" stroke="hsla(163.10000000000002, 100%, 65%, 0.7)" stroke-width="1.5"></path><path d="M496.98 640.69L650.9 708.78" stroke="hsla(163.10000000000002, 100%, 65%, 0.7)" stroke-width="1.5"></path><path d="M496.98 640.69L705.16 488.94" stroke="hsla(163.10000000000002, 100%, 65%, 0.7)" stroke-width="1.5"></path><path d="M705.16 488.94L705.16 488.94" stroke="hsla(163.10000000000002, 100%, 65%, 0.7)" stroke-width="1.5"></path><path d="M705.16 488.94L850.54 498.21" stroke="hsla(163.10000000000002, 100%, 65%, 0.7)" stroke-width="1.5"></path><path d="M705.16 488.94L824.49 382.76" stroke="hsla(163.10000000000002, 100%, 65%, 0.7)" stroke-width="1.5"></path><path d="M705.16 488.94L807.02 651.29" stroke="hsla(163.10000000000002, 100%, 65%, 0.7)" stroke-width="1.5"></path><path d="M650.9 708.78L650.9 708.78" stroke="hsla(163.10000000000002, 100%, 65%, 0.7)" stroke-width="1.5"></path><path d="M650.9 708.78L807.02 651.29" stroke="hsla(163.10000000000002, 100%, 65%, 0.7)" stroke-width="1.5"></path><path d="M650.9 708.78L705.16 488.94" stroke="hsla(163.10000000000002, 100%, 65%, 0.7)" stroke-width="1.5"></path><path d="M824.49 382.76L824.49 382.76" stroke="hsla(163.10000000000002, 100%, 65%, 0.7)" stroke-width="1.5"></path><path d="M807.02 651.29L807.02 651.29" stroke="hsla(163.10000000000002, 100%, 65%, 0.7)" stroke-width="1.5"></path><path d="M807.02 651.29L850.54 498.21" stroke="hsla(163.10000000000002, 100%, 65%, 0.7)" stroke-width="1.5"></path><path d="M807.02 651.29L994.33 651.79" stroke="hsla(163.10000000000002, 100%, 65%, 0.7)" stroke-width="1.5"></path><path d="M807.02 651.29L977.9 539.33" stroke="hsla(163.10000000000002, 100%, 65%, 0.7)" stroke-width="1.5"></path><path d="M977.9 539.33L977.9 539.33" stroke="hsla(163.10000000000002, 100%, 65%, 0.7)" stroke-width="1.5"></path><path d="M1139.45 68.47L1139.45 68.47" stroke="hsla(163.10000000000002, 100%, 65%, 0.7)" stroke-width="1.5"></path><path d="M1139.45 68.47L1261.37 100.12" stroke="hsla(163.10000000000002, 100%, 65%, 0.7)" stroke-width="1.5"></path><path d="M1139.45 68.47L1276.6 261.13" stroke="hsla(163.10000000000002, 100%, 65%, 0.7)" stroke-width="1.5"></path><path d="M1139.45 68.47L1152.58 363.09" stroke="hsla(163.10000000000002, 100%, 65%, 0.7)" stroke-width="1.5"></path><path d="M1139.45 68.47L1461.14 83.84" stroke="hsla(163.10000000000002, 100%, 65%, 0.7)" stroke-width="1.5"></path><path d="M1152.58 363.09L1152.58 363.09" stroke="hsla(163.10000000000002, 100%, 65%, 0.7)" stroke-width="1.5"></path><path d="M1152.58 363.09L1288.56 380.67" stroke="hsla(163.10000000000002, 100%, 65%, 0.7)" stroke-width="1.5"></path><path d="M1152.58 363.09L1276.6 261.13" stroke="hsla(163.10000000000002, 100%, 65%, 0.7)" stroke-width="1.5"></path><path d="M1152.58 363.09L1161.39 547.07" stroke="hsla(163.10000000000002, 100%, 65%, 0.7)" stroke-width="1.5"></path><path d="M1152.58 363.09L1267.34 507.52" stroke="hsla(163.10000000000002, 100%, 65%, 0.7)" stroke-width="1.5"></path><path d="M1161.39 547.07L1161.39 547.07" stroke="hsla(163.10000000000002, 100%, 65%, 0.7)" stroke-width="1.5"></path><path d="M1161.39 547.07L1094.42 675.4" stroke="hsla(163.10000000000002, 100%, 65%, 0.7)" stroke-width="1.5"></path><path d="M1161.39 547.07L1311.89 651.47" stroke="hsla(163.10000000000002, 100%, 65%, 0.7)" stroke-width="1.5"></path><path d="M1094.42 675.4L1094.42 675.4" stroke="hsla(163.10000000000002, 100%, 65%, 0.7)" stroke-width="1.5"></path><path d="M1094.42 675.4L977.9 539.33" stroke="hsla(163.10000000000002, 100%, 65%, 0.7)" stroke-width="1.5"></path><path d="M1094.42 675.4L1311.89 651.47" stroke="hsla(163.10000000000002, 100%, 65%, 0.7)" stroke-width="1.5"></path><path d="M1094.42 675.4L1267.34 507.52" stroke="hsla(163.10000000000002, 100%, 65%, 0.7)" stroke-width="1.5"></path><path d="M1261.37 100.12L1261.37 100.12" stroke="hsla(163.10000000000002, 100%, 65%, 0.7)" stroke-width="1.5"></path><path d="M1261.37 100.12L1276.6 261.13" stroke="hsla(163.10000000000002, 100%, 65%, 0.7)" stroke-width="1.5"></path><path d="M1261.37 100.12L1461.14 83.84" stroke="hsla(163.10000000000002, 100%, 65%, 0.7)" stroke-width="1.5"></path><path d="M1276.6 261.13L1276.6 261.13" stroke="hsla(163.10000000000002, 100%, 65%, 0.7)" stroke-width="1.5"></path><path d="M1276.6 261.13L1288.56 380.67" stroke="hsla(163.10000000000002, 100%, 65%, 0.7)" stroke-width="1.5"></path><path d="M1288.56 380.67L1288.56 380.67" stroke="hsla(163.10000000000002, 100%, 65%, 0.7)" stroke-width="1.5"></path><path d="M1311.89 651.47L1311.89 651.47" stroke="hsla(163.10000000000002, 100%, 65%, 0.7)" stroke-width="1.5"></path><path d="M1311.89 651.47L1267.34 507.52" stroke="hsla(163.10000000000002, 100%, 65%, 0.7)" stroke-width="1.5"></path><path d="M1311.89 651.47L1418.8 500.83" stroke="hsla(163.10000000000002, 100%, 65%, 0.7)" stroke-width="1.5"></path><path d="M1461.14 83.84L1461.14 83.84" stroke="hsla(163.10000000000002, 100%, 65%, 0.7)" stroke-width="1.5"></path><path d="M1461.14 83.84L1572.43 109.82" stroke="hsla(163.10000000000002, 100%, 65%, 0.7)" stroke-width="1.5"></path><path d="M1461.14 83.84L1449.9 258.89" stroke="hsla(163.10000000000002, 100%, 65%, 0.7)" stroke-width="1.5"></path><path d="M1461.14 83.84L1612.07 202.37" stroke="hsla(163.10000000000002, 100%, 65%, 0.7)" stroke-width="1.5"></path><path d="M1449.9 258.89L1449.9 258.89" stroke="hsla(163.10000000000002, 100%, 65%, 0.7)" stroke-width="1.5"></path><path d="M1449.9 258.89L1441.61 371.6" stroke="hsla(163.10000000000002, 100%, 65%, 0.7)" stroke-width="1.5"></path><path d="M1449.9 258.89L1579.58 351.01" stroke="hsla(163.10000000000002, 100%, 65%, 0.7)" stroke-width="1.5"></path><path d="M1449.9 258.89L1612.07 202.37" stroke="hsla(163.10000000000002, 100%, 65%, 0.7)" stroke-width="1.5"></path><path d="M1449.9 258.89L1276.6 261.13" stroke="hsla(163.10000000000002, 100%, 65%, 0.7)" stroke-width="1.5"></path><path d="M1449.9 258.89L1572.43 109.82" stroke="hsla(163.10000000000002, 100%, 65%, 0.7)" stroke-width="1.5"></path><path d="M1441.61 371.6L1441.61 371.6" stroke="hsla(163.10000000000002, 100%, 65%, 0.7)" stroke-width="1.5"></path><path d="M1441.61 371.6L1418.8 500.83" stroke="hsla(163.10000000000002, 100%, 65%, 0.7)" stroke-width="1.5"></path><path d="M1441.61 371.6L1579.58 351.01" stroke="hsla(163.10000000000002, 100%, 65%, 0.7)" stroke-width="1.5"></path><path d="M1441.61 371.6L1288.56 380.67" stroke="hsla(163.10000000000002, 100%, 65%, 0.7)" stroke-width="1.5"></path><path d="M1418.8 500.83L1418.8 500.83" stroke="hsla(163.10000000000002, 100%, 65%, 0.7)" stroke-width="1.5"></path><path d="M1418.8 500.83L1267.34 507.52" stroke="hsla(163.10000000000002, 100%, 65%, 0.7)" stroke-width="1.5"></path><path d="M1418.8 500.83L1288.56 380.67" stroke="hsla(163.10000000000002, 100%, 65%, 0.7)" stroke-width="1.5"></path><path d="M1572.43 109.82L1572.43 109.82" stroke="hsla(163.10000000000002, 100%, 65%, 0.7)" stroke-width="1.5"></path><path d="M1572.43 109.82L1612.07 202.37" stroke="hsla(163.10000000000002, 100%, 65%, 0.7)" stroke-width="1.5"></path><path d="M1612.07 202.37L1612.07 202.37" stroke="hsla(163.10000000000002, 100%, 65%, 0.7)" stroke-width="1.5"></path><path d="M1612.07 202.37L1579.58 351.01" stroke="hsla(163.10000000000002, 100%, 65%, 0.7)" stroke-width="1.5"></path><path d="M1579.58 351.01L1579.58 351.01" stroke="hsla(163.10000000000002, 100%, 65%, 0.7)" stroke-width="1.5"></path><path d="M1579.58 351.01L1603.71 551.78" stroke="hsla(163.10000000000002, 100%, 65%, 0.7)" stroke-width="1.5"></path><path d="M1579.58 351.01L1418.8 500.83" stroke="hsla(163.10000000000002, 100%, 65%, 0.7)" stroke-width="1.5"></path><path d="M1579.58 351.01L1572.43 109.82" stroke="hsla(163.10000000000002, 100%, 65%, 0.7)" stroke-width="1.5"></path><path d="M1603.71 551.78L1603.71 551.78" stroke="hsla(163.10000000000002, 100%, 65%, 0.7)" stroke-width="1.5"></path><path d="M1603.71 551.78L1579.26 641.15" stroke="hsla(163.10000000000002, 100%, 65%, 0.7)" stroke-width="1.5"></path><path d="M1603.71 551.78L1418.8 500.83" stroke="hsla(163.10000000000002, 100%, 65%, 0.7)" stroke-width="1.5"></path><path d="M1603.71 551.78L1441.61 371.6" stroke="hsla(163.10000000000002, 100%, 65%, 0.7)" stroke-width="1.5"></path><path d="M1579.26 641.15L1579.26 641.15" stroke="hsla(163.10000000000002, 100%, 65%, 0.7)" stroke-width="1.5"></path><path d="M1579.26 641.15L1418.8 500.83" stroke="hsla(163.10000000000002, 100%, 65%, 0.7)" stroke-width="1.5"></path><circle r="25" cx="850.54" cy="498.21" fill="url(&quot;#SvgjsRadialGradient1064&quot;)"></circle><circle r="25" cx="978.81" cy="410.77" fill="url(&quot;#SvgjsRadialGradient1064&quot;)"></circle><circle r="25" cx="994.33" cy="651.79" fill="url(&quot;#SvgjsRadialGradient1064&quot;)"></circle><circle r="25" cx="1156.75" cy="-77.19" fill="url(&quot;#SvgjsRadialGradient1064&quot;)"></circle><circle r="25" cx="1114.61" cy="244.15" fill="url(&quot;#SvgjsRadialGradient1064&quot;)"></circle><circle r="25" cx="1267.34" cy="507.52" fill="url(&quot;#SvgjsRadialGradient1064&quot;)"></circle><circle r="25" cx="1406.61" cy="654.57" fill="url(&quot;#SvgjsRadialGradient1064&quot;)"></circle><circle r="5" cx="-58.71" cy="554.12" fill="rgba(166, 255, 230, 0.85)"></circle><circle r="5" cx="-57.09" cy="711.99" fill="rgba(166, 255, 230, 0.85)"></circle><circle r="5" cx="81.16" cy="560.22" fill="rgba(166, 255, 230, 0.85)"></circle><circle r="5" cx="92.64" cy="700.22" fill="rgba(166, 255, 230, 0.85)"></circle><circle r="5" cx="253.85" cy="638.76" fill="rgba(166, 255, 230, 0.85)"></circle><circle r="5" cx="342.8" cy="558.61" fill="rgba(166, 255, 230, 0.85)"></circle><circle r="5" cx="342.3" cy="688.25" fill="rgba(166, 255, 230, 0.85)"></circle><circle r="5" cx="525.72" cy="562.21" fill="rgba(166, 255, 230, 0.85)"></circle><circle r="5" cx="496.98" cy="640.69" fill="rgba(166, 255, 230, 0.85)"></circle><circle r="5" cx="705.16" cy="488.94" fill="rgba(166, 255, 230, 0.85)"></circle><circle r="5" cx="650.9" cy="708.78" fill="rgba(166, 255, 230, 0.85)"></circle><circle r="5" cx="824.49" cy="382.76" fill="rgba(166, 255, 230, 0.85)"></circle><circle r="5" cx="807.02" cy="651.29" fill="rgba(166, 255, 230, 0.85)"></circle><circle r="5" cx="977.9" cy="539.33" fill="rgba(166, 255, 230, 0.85)"></circle><circle r="5" cx="1139.45" cy="68.47" fill="rgba(166, 255, 230, 0.85)"></circle><circle r="5" cx="1152.58" cy="363.09" fill="rgba(166, 255, 230, 0.85)"></circle><circle r="5" cx="1161.39" cy="547.07" fill="rgba(166, 255, 230, 0.85)"></circle><circle r="5" cx="1094.42" cy="675.4" fill="rgba(166, 255, 230, 0.85)"></circle><circle r="5" cx="1261.37" cy="100.12" fill="rgba(166, 255, 230, 0.85)"></circle><circle r="5" cx="1276.6" cy="261.13" fill="rgba(166, 255, 230, 0.85)"></circle><circle r="5" cx="1288.56" cy="380.67" fill="rgba(166, 255, 230, 0.85)"></circle><circle r="5" cx="1311.89" cy="651.47" fill="rgba(166, 255, 230, 0.85)"></circle><circle r="5" cx="1461.14" cy="83.84" fill="rgba(166, 255, 230, 0.85)"></circle><circle r="5" cx="1449.9" cy="258.89" fill="rgba(166, 255, 230, 0.85)"></circle><circle r="5" cx="1441.61" cy="371.6" fill="rgba(166, 255, 230, 0.85)"></circle><circle r="5" cx="1418.8" cy="500.83" fill="rgba(166, 255, 230, 0.85)"></circle><circle r="5" cx="1572.43" cy="109.82" fill="rgba(166, 255, 230, 0.85)"></circle><circle r="5" cx="1612.07" cy="202.37" fill="rgba(166, 255, 230, 0.85)"></circle><circle r="5" cx="1579.58" cy="351.01" fill="rgba(166, 255, 230, 0.85)"></circle><circle r="5" cx="1603.71" cy="551.78" fill="rgba(166, 255, 230, 0.85)"></circle><circle r="5" cx="1579.26" cy="641.15" fill="rgba(166, 255, 230, 0.85)"></circle></g><defs><mask id="SvgjsMask1063"><rect width="1440" height="560" fill="#ffffff"></rect></mask><radialGradient id="SvgjsRadialGradient1064"><stop stop-color="#ffffff" offset="0.1"></stop><stop stop-color="rgba(0, 255, 183, 0.7)" offset="0.2"></stop><stop stop-color="rgba(0, 255, 183, 0)" offset="1"></stop></radialGradient></defs></svg>